<svg width="739" height="197" viewBox="0 0 739 197" fill="none" xmlns="http://www.w3.org/2000/svg">
<path d="M123.75 76.3398C123.75 80.3242 123.223 84.1719 122.168 87.8828C121.152 91.5547 119.707 95.0117 117.832 98.2539C115.957 101.457 113.691 104.387 111.035 107.043C108.379 109.699 105.449 111.984 102.246 113.898C99.043 115.773 95.5859 117.219 91.875 118.234C88.1641 119.289 84.3164 119.816 80.332 119.816C76.3477 119.816 72.5 119.289 68.7891 118.234C65.1172 117.219 61.6602 115.773 58.418 113.898C55.2148 111.984 52.2852 109.699 49.6289 107.043C46.9727 104.387 44.6875 101.457 42.7734 98.2539C40.8984 95.0117 39.4336 91.5547 38.3789 87.8828C37.3633 84.1719 36.8555 80.3242 36.8555 76.3398C36.8555 72.3555 37.3633 68.5078 38.3789 64.7969C39.4336 61.0859 40.8984 57.6289 42.7734 54.4258C44.6875 51.2227 46.9727 48.293 49.6289 45.6367C52.2852 42.9805 55.2148 40.7148 58.418 38.8398C61.6602 36.9648 65.1172 35.5195 68.7891 34.5039C72.5 33.4492 76.3477 32.9219 80.332 32.9219C84.3164 32.9219 88.1641 33.4492 91.875 34.5039C95.5859 35.5195 99.043 36.9648 102.246 38.8398C105.449 40.7148 108.379 42.9805 111.035 45.6367C113.691 48.293 115.957 51.2227 117.832 54.4258C119.707 57.6289 121.152 61.0859 122.168 64.7969C123.223 68.5078 123.75 72.3555 123.75 76.3398ZM107.051 76.3398C107.051 72.668 106.348 69.2109 104.941 65.9688C103.535 62.6875 101.621 59.8555 99.1992 57.4727C96.8164 55.0508 93.9844 53.1367 90.7031 51.7305C87.4609 50.3242 84.0039 49.6211 80.332 49.6211C76.6211 49.6211 73.1445 50.3242 69.9023 51.7305C66.6602 53.1367 63.8281 55.0508 61.4062 57.4727C58.9844 59.8555 57.0703 62.6875 55.6641 65.9688C54.2578 69.2109 53.5547 72.668 53.5547 76.3398C53.5547 80.0117 54.2578 83.4688 55.6641 86.7109C57.0703 89.9141 58.9844 92.7266 61.4062 95.1484C63.8281 97.5703 66.6602 99.4844 69.9023 100.891C73.1445 102.297 76.6211 103 80.332 103C84.0039 103 87.4609 102.297 90.7031 100.891C93.9844 99.4844 96.8164 97.5703 99.1992 95.1484C101.621 92.7266 103.535 89.9141 104.941 86.7109C106.348 83.4688 107.051 80.0117 107.051 76.3398ZM218.203 118H201.445V58C201.445 56.8281 201.211 55.7344 200.742 54.7188C200.312 53.7031 199.707 52.8242 198.926 52.082C198.184 51.3008 197.305 50.6953 196.289 50.2656C195.273 49.8359 194.18 49.6211 193.008 49.6211C191.836 49.6211 190.742 49.8359 189.727 50.2656C188.711 50.6953 187.812 51.3008 187.031 52.082C186.289 52.8242 185.703 53.7031 185.273 54.7188C184.844 55.7344 184.629 56.8281 184.629 58V118H167.812V58C167.812 56.8281 167.598 55.7344 167.168 54.7188C166.738 53.7031 166.133 52.8242 165.352 52.082C164.609 51.3008 163.73 50.6953 162.715 50.2656C161.699 49.8359 160.605 49.6211 159.434 49.6211C158.262 49.6211 157.168 49.8359 156.152 50.2656C155.137 50.6953 154.238 51.3008 153.457 52.082C152.715 52.8242 152.129 53.7031 151.699 54.7188C151.27 55.7344 151.055 56.8281 151.055 58V118H134.238V58C134.238 54.5234 134.883 51.2617 136.172 48.2148C137.5 45.1289 139.297 42.4531 141.562 40.1875C143.867 37.8828 146.543 36.0859 149.59 34.7969C152.676 33.4687 155.957 32.8047 159.434 32.8047C162.559 32.8047 165.566 33.3711 168.457 34.5039C171.348 35.5977 173.945 37.1992 176.25 39.3086C178.555 37.1992 181.133 35.5977 183.984 34.5039C186.875 33.3711 189.883 32.8047 193.008 32.8047C196.484 32.8047 199.746 33.4687 202.793 34.7969C205.879 36.0859 208.555 37.8828 210.82 40.1875C213.125 42.4531 214.922 45.1289 216.211 48.2148C217.539 51.2617 218.203 54.5234 218.203 58V118ZM300.469 118H282.48L250.078 62.6875V118H233.262V33.9766H251.25L283.652 89.3477V33.9766H300.469V118ZM400.195 118H383.379V33.9766H400.195V75.9883L431.484 33.9766H450.586L424.043 69.4258L450.586 118H431.484L413.027 84.0156L400.195 101.184V118ZM537.891 76.3398C537.891 80.3242 537.363 84.1719 536.309 87.8828C535.293 91.5547 533.848 95.0117 531.973 98.2539C530.098 101.457 527.832 104.387 525.176 107.043C522.52 109.699 519.59 111.984 516.387 113.898C513.184 115.773 509.727 117.219 506.016 118.234C502.305 119.289 498.457 119.816 494.473 119.816C490.488 119.816 486.641 119.289 482.93 118.234C479.258 117.219 475.801 115.773 472.559 113.898C469.355 111.984 466.426 109.699 463.77 107.043C461.113 104.387 458.828 101.457 456.914 98.2539C455.039 95.0117 453.574 91.5547 452.52 87.8828C451.504 84.1719 450.996 80.3242 450.996 76.3398C450.996 72.3555 451.504 68.5078 452.52 64.7969C453.574 61.0859 455.039 57.6289 456.914 54.4258C458.828 51.2227 461.113 48.293 463.77 45.6367C466.426 42.9805 469.355 40.7148 472.559 38.8398C475.801 36.9648 479.258 35.5195 482.93 34.5039C486.641 33.4492 490.488 32.9219 494.473 32.9219C498.457 32.9219 502.305 33.4492 506.016 34.5039C509.727 35.5195 513.184 36.9648 516.387 38.8398C519.59 40.7148 522.52 42.9805 525.176 45.6367C527.832 48.293 530.098 51.2227 531.973 54.4258C533.848 57.6289 535.293 61.0859 536.309 64.7969C537.363 68.5078 537.891 72.3555 537.891 76.3398ZM521.191 76.3398C521.191 72.668 520.488 69.2109 519.082 65.9688C517.676 62.6875 515.762 59.8555 513.34 57.4727C510.957 55.0508 508.125 53.1367 504.844 51.7305C501.602 50.3242 498.145 49.6211 494.473 49.6211C490.762 49.6211 487.285 50.3242 484.043 51.7305C480.801 53.1367 477.969 55.0508 475.547 57.4727C473.125 59.8555 471.211 62.6875 469.805 65.9688C468.398 69.2109 467.695 72.668 467.695 76.3398C467.695 80.0117 468.398 83.4688 469.805 86.7109C471.211 89.9141 473.125 92.7266 475.547 95.1484C477.969 97.5703 480.801 99.4844 484.043 100.891C487.285 102.297 490.762 103 494.473 103C498.145 103 501.602 102.297 504.844 100.891C508.125 99.4844 510.957 97.5703 513.34 95.1484C515.762 92.7266 517.676 89.9141 519.082 86.7109C520.488 83.4688 521.191 80.0117 521.191 76.3398ZM632.344 118H615.586V58C615.586 56.8281 615.352 55.7344 614.883 54.7188C614.453 53.7031 613.848 52.8242 613.066 52.082C612.324 51.3008 611.445 50.6953 610.43 50.2656C609.414 49.8359 608.32 49.6211 607.148 49.6211C605.977 49.6211 604.883 49.8359 603.867 50.2656C602.852 50.6953 601.953 51.3008 601.172 52.082C600.43 52.8242 599.844 53.7031 599.414 54.7188C598.984 55.7344 598.77 56.8281 598.77 58V118H581.953V58C581.953 56.8281 581.738 55.7344 581.309 54.7188C580.879 53.7031 580.273 52.8242 579.492 52.082C578.75 51.3008 577.871 50.6953 576.855 50.2656C575.84 49.8359 574.746 49.6211 573.574 49.6211C572.402 49.6211 571.309 49.8359 570.293 50.2656C569.277 50.6953 568.379 51.3008 567.598 52.082C566.855 52.8242 566.27 53.7031 565.84 54.7188C565.41 55.7344 565.195 56.8281 565.195 58V118H548.379V58C548.379 54.5234 549.023 51.2617 550.312 48.2148C551.641 45.1289 553.438 42.4531 555.703 40.1875C558.008 37.8828 560.684 36.0859 563.73 34.7969C566.816 33.4687 570.098 32.8047 573.574 32.8047C576.699 32.8047 579.707 33.3711 582.598 34.5039C585.488 35.5977 588.086 37.1992 590.391 39.3086C592.695 37.1992 595.273 35.5977 598.125 34.5039C601.016 33.3711 604.023 32.8047 607.148 32.8047C610.625 32.8047 613.887 33.4687 616.934 34.7969C620.02 36.0859 622.695 37.8828 624.961 40.1875C627.266 42.4531 629.062 45.1289 630.352 48.2148C631.68 51.2617 632.344 54.5234 632.344 58V118ZM730.781 118H714.023V58C714.023 56.8281 713.789 55.7344 713.32 54.7188C712.891 53.7031 712.285 52.8242 711.504 52.082C710.762 51.3008 709.883 50.6953 708.867 50.2656C707.852 49.8359 706.758 49.6211 705.586 49.6211C704.414 49.6211 703.32 49.8359 702.305 50.2656C701.289 50.6953 700.391 51.3008 699.609 52.082C698.867 52.8242 698.281 53.7031 697.852 54.7188C697.422 55.7344 697.207 56.8281 697.207 58V118H680.391V58C680.391 56.8281 680.176 55.7344 679.746 54.7188C679.316 53.7031 678.711 52.8242 677.93 52.082C677.188 51.3008 676.309 50.6953 675.293 50.2656C674.277 49.8359 673.184 49.6211 672.012 49.6211C670.84 49.6211 669.746 49.8359 668.73 50.2656C667.715 50.6953 666.816 51.3008 666.035 52.082C665.293 52.8242 664.707 53.7031 664.277 54.7188C663.848 55.7344 663.633 56.8281 663.633 58V118H646.816V58C646.816 54.5234 647.461 51.2617 648.75 48.2148C650.078 45.1289 651.875 42.4531 654.141 40.1875C656.445 37.8828 659.121 36.0859 662.168 34.7969C665.254 33.4687 668.535 32.8047 672.012 32.8047C675.137 32.8047 678.145 33.3711 681.035 34.5039C683.926 35.5977 686.523 37.1992 688.828 39.3086C691.133 37.1992 693.711 35.5977 696.562 34.5039C699.453 33.3711 702.461 32.8047 705.586 32.8047C709.062 32.8047 712.324 33.4687 715.371 34.7969C718.457 36.0859 721.133 37.8828 723.398 40.1875C725.703 42.4531 727.5 45.1289 728.789 48.2148C730.117 51.2617 730.781 54.5234 730.781 58V118Z" fill="white"/>
<path d="M187.22 166.955C187.22 168.455 186.77 169.625 185.87 170.465C184.97 171.305 183.815 171.875 182.405 172.175V172.355C183.905 172.565 185.21 173.105 186.32 173.975C187.43 174.815 187.985 176.135 187.985 177.935C187.985 179.975 187.22 181.67 185.69 183.02C184.19 184.34 181.7 185 178.22 185H167.825V160.88H178.175C179.885 160.88 181.415 161.075 182.765 161.465C184.145 161.825 185.225 162.455 186.005 163.355C186.815 164.225 187.22 165.425 187.22 166.955ZM183.215 167.45C183.215 166.31 182.795 165.485 181.955 164.975C181.145 164.435 179.81 164.165 177.95 164.165H171.785V170.78H177.23C181.22 170.78 183.215 169.67 183.215 167.45ZM183.89 177.935C183.89 176.555 183.365 175.565 182.315 174.965C181.265 174.365 179.72 174.065 177.68 174.065H171.785V181.805H177.77C179.75 181.805 181.265 181.52 182.315 180.95C183.365 180.35 183.89 179.345 183.89 177.935ZM204.913 160.475C207.853 160.475 210.028 161.12 211.438 162.41C212.848 163.7 213.553 165.755 213.553 168.575V185H210.673L209.908 181.58H209.728C208.678 182.9 207.568 183.875 206.398 184.505C205.258 185.135 203.668 185.45 201.628 185.45C199.438 185.45 197.623 184.88 196.183 183.74C194.743 182.57 194.023 180.755 194.023 178.295C194.023 175.895 194.968 174.05 196.858 172.76C198.748 171.44 201.658 170.72 205.588 170.6L209.683 170.465V169.025C209.683 167.015 209.248 165.62 208.378 164.84C207.508 164.06 206.278 163.67 204.688 163.67C203.428 163.67 202.228 163.865 201.088 164.255C199.948 164.615 198.883 165.035 197.893 165.515L196.678 162.545C197.728 161.975 198.973 161.495 200.413 161.105C201.853 160.685 203.353 160.475 204.913 160.475ZM209.638 173.21L206.083 173.345C203.083 173.465 200.998 173.945 199.828 174.785C198.688 175.625 198.118 176.81 198.118 178.34C198.118 179.69 198.523 180.68 199.333 181.31C200.173 181.94 201.238 182.255 202.528 182.255C204.568 182.255 206.263 181.7 207.613 180.59C208.963 179.45 209.638 177.71 209.638 175.37V173.21ZM255.742 160.88V185H223.027V160.88H226.987V181.67H237.382V160.88H241.342V181.67H251.782V160.88H255.742ZM274.617 160.475C277.557 160.475 279.732 161.12 281.142 162.41C282.552 163.7 283.257 165.755 283.257 168.575V185H280.377L279.612 181.58H279.432C278.382 182.9 277.272 183.875 276.102 184.505C274.962 185.135 273.372 185.45 271.332 185.45C269.142 185.45 267.327 184.88 265.887 183.74C264.447 182.57 263.727 180.755 263.727 178.295C263.727 175.895 264.672 174.05 266.562 172.76C268.452 171.44 271.362 170.72 275.292 170.6L279.387 170.465V169.025C279.387 167.015 278.952 165.62 278.082 164.84C277.212 164.06 275.982 163.67 274.392 163.67C273.132 163.67 271.932 163.865 270.792 164.255C269.652 164.615 268.587 165.035 267.597 165.515L266.382 162.545C267.432 161.975 268.677 161.495 270.117 161.105C271.557 160.685 273.057 160.475 274.617 160.475ZM279.342 173.21L275.787 173.345C272.787 173.465 270.702 173.945 269.532 174.785C268.392 175.625 267.822 176.81 267.822 178.34C267.822 179.69 268.227 180.68 269.037 181.31C269.877 181.94 270.942 182.255 272.232 182.255C274.272 182.255 275.967 181.7 277.317 180.59C278.667 179.45 279.342 177.71 279.342 175.37V173.21ZM333.244 160.88V185H329.689V169.61C329.689 168.98 329.704 168.32 329.734 167.63C329.794 166.94 329.854 166.265 329.914 165.605H329.779L321.904 185H318.574L310.924 165.605H310.789C310.879 166.955 310.924 168.335 310.924 169.745V185H307.369V160.88H312.634L320.239 180.275L327.979 160.88H333.244ZM352.103 160.475C355.043 160.475 357.218 161.12 358.628 162.41C360.038 163.7 360.743 165.755 360.743 168.575V185H357.863L357.098 181.58H356.918C355.868 182.9 354.758 183.875 353.588 184.505C352.448 185.135 350.858 185.45 348.818 185.45C346.628 185.45 344.813 184.88 343.373 183.74C341.933 182.57 341.213 180.755 341.213 178.295C341.213 175.895 342.158 174.05 344.048 172.76C345.938 171.44 348.848 170.72 352.778 170.6L356.873 170.465V169.025C356.873 167.015 356.438 165.62 355.568 164.84C354.698 164.06 353.468 163.67 351.878 163.67C350.618 163.67 349.418 163.865 348.278 164.255C347.138 164.615 346.073 165.035 345.083 165.515L343.868 162.545C344.918 161.975 346.163 161.495 347.603 161.105C349.043 160.685 350.543 160.475 352.103 160.475ZM356.828 173.21L353.273 173.345C350.273 173.465 348.188 173.945 347.018 174.785C345.878 175.625 345.308 176.81 345.308 178.34C345.308 179.69 345.713 180.68 346.523 181.31C347.363 181.94 348.428 182.255 349.718 182.255C351.758 182.255 353.453 181.7 354.803 180.59C356.153 179.45 356.828 177.71 356.828 175.37V173.21ZM379.893 185.45C377.763 185.45 375.858 185.015 374.178 184.145C372.528 183.275 371.223 181.925 370.263 180.095C369.333 178.265 368.868 175.925 368.868 173.075C368.868 170.105 369.363 167.69 370.353 165.83C371.343 163.97 372.678 162.605 374.358 161.735C376.068 160.865 378.003 160.43 380.163 160.43C381.393 160.43 382.578 160.565 383.718 160.835C384.858 161.075 385.788 161.375 386.508 161.735L385.293 165.02C384.573 164.75 383.733 164.495 382.773 164.255C381.813 164.015 380.913 163.895 380.073 163.895C375.333 163.895 372.963 166.94 372.963 173.03C372.963 175.94 373.533 178.175 374.673 179.735C375.843 181.265 377.568 182.03 379.848 182.03C381.168 182.03 382.323 181.895 383.313 181.625C384.333 181.355 385.263 181.025 386.103 180.635V184.145C385.293 184.565 384.393 184.88 383.403 185.09C382.443 185.33 381.273 185.45 379.893 185.45ZM410.514 164.21H402.639V185H398.724V164.21H390.939V160.88H410.514V164.21ZM426.166 160.43C428.236 160.43 430.006 160.88 431.476 161.78C432.976 162.68 434.116 163.955 434.896 165.605C435.706 167.225 436.111 169.13 436.111 171.32V173.705H419.596C419.656 176.435 420.346 178.52 421.666 179.96C423.016 181.37 424.891 182.075 427.291 182.075C428.821 182.075 430.171 181.94 431.341 181.67C432.541 181.37 433.771 180.95 435.031 180.41V183.875C433.801 184.415 432.586 184.805 431.386 185.045C430.186 185.315 428.761 185.45 427.111 185.45C424.831 185.45 422.806 184.985 421.036 184.055C419.296 183.125 417.931 181.745 416.941 179.915C415.981 178.055 415.501 175.79 415.501 173.12C415.501 170.48 415.936 168.215 416.806 166.325C417.706 164.435 418.951 162.98 420.541 161.96C422.161 160.94 424.036 160.43 426.166 160.43ZM426.121 163.67C424.231 163.67 422.731 164.285 421.621 165.515C420.541 166.715 419.896 168.395 419.686 170.555H431.971C431.941 168.515 431.461 166.865 430.531 165.605C429.601 164.315 428.131 163.67 426.121 163.67ZM455.751 160.43C458.721 160.43 461.106 161.465 462.906 163.535C464.736 165.605 465.651 168.725 465.651 172.895C465.651 177.005 464.736 180.125 462.906 182.255C461.106 184.385 458.706 185.45 455.706 185.45C453.846 185.45 452.301 185.105 451.071 184.415C449.871 183.695 448.926 182.87 448.236 181.94H447.966C448.026 182.45 448.086 183.095 448.146 183.875C448.206 184.655 448.236 185.33 448.236 185.9V195.8H444.276V160.88H447.516L448.056 164.165H448.236C448.956 163.115 449.901 162.23 451.071 161.51C452.241 160.79 453.801 160.43 455.751 160.43ZM455.031 163.76C452.571 163.76 450.831 164.45 449.811 165.83C448.821 167.21 448.296 169.31 448.236 172.13V172.895C448.236 175.865 448.716 178.16 449.676 179.78C450.666 181.37 452.481 182.165 455.121 182.165C456.591 182.165 457.791 181.76 458.721 180.95C459.681 180.14 460.386 179.045 460.836 177.665C461.316 176.255 461.556 174.65 461.556 172.85C461.556 170.09 461.016 167.885 459.936 166.235C458.886 164.585 457.251 163.76 455.031 163.76ZM483.662 185.45C481.532 185.45 479.627 185.015 477.947 184.145C476.297 183.275 474.992 181.925 474.032 180.095C473.102 178.265 472.637 175.925 472.637 173.075C472.637 170.105 473.132 167.69 474.122 165.83C475.112 163.97 476.447 162.605 478.127 161.735C479.837 160.865 481.772 160.43 483.932 160.43C485.162 160.43 486.347 160.565 487.487 160.835C488.627 161.075 489.557 161.375 490.277 161.735L489.062 165.02C488.342 164.75 487.502 164.495 486.542 164.255C485.582 164.015 484.682 163.895 483.842 163.895C479.102 163.895 476.732 166.94 476.732 173.03C476.732 175.94 477.302 178.175 478.442 179.735C479.612 181.265 481.337 182.03 483.617 182.03C484.937 182.03 486.092 181.895 487.082 181.625C488.102 181.355 489.032 181.025 489.872 180.635V184.145C489.062 184.565 488.162 184.88 487.172 185.09C486.212 185.33 485.042 185.45 483.662 185.45ZM511.898 160.88H516.218L505.913 172.49L517.073 185H512.483L501.593 172.76V185H497.633V160.88H501.593V172.58L511.898 160.88ZM532.611 160.475C535.551 160.475 537.726 161.12 539.136 162.41C540.546 163.7 541.251 165.755 541.251 168.575V185H538.371L537.606 181.58H537.426C536.376 182.9 535.266 183.875 534.096 184.505C532.956 185.135 531.366 185.45 529.326 185.45C527.136 185.45 525.321 184.88 523.881 183.74C522.441 182.57 521.721 180.755 521.721 178.295C521.721 175.895 522.666 174.05 524.556 172.76C526.446 171.44 529.356 170.72 533.286 170.6L537.381 170.465V169.025C537.381 167.015 536.946 165.62 536.076 164.84C535.206 164.06 533.976 163.67 532.386 163.67C531.126 163.67 529.926 163.865 528.786 164.255C527.646 164.615 526.581 165.035 525.591 165.515L524.376 162.545C525.426 161.975 526.671 161.495 528.111 161.105C529.551 160.685 531.051 160.475 532.611 160.475ZM537.336 173.21L533.781 173.345C530.781 173.465 528.696 173.945 527.526 174.785C526.386 175.625 525.816 176.81 525.816 178.34C525.816 179.69 526.221 180.68 527.031 181.31C527.871 181.94 528.936 182.255 530.226 182.255C532.266 182.255 533.961 181.7 535.311 180.59C536.661 179.45 537.336 177.71 537.336 175.37V173.21ZM552.211 185H547.621L554.506 174.875C553.576 174.635 552.676 174.26 551.806 173.75C550.936 173.21 550.231 172.475 549.691 171.545C549.151 170.585 548.881 169.4 548.881 167.99C548.881 165.68 549.661 163.925 551.221 162.725C552.781 161.495 554.851 160.88 557.431 160.88H568.231V185H564.271V175.415H558.421L552.211 185ZM552.706 168.035C552.706 169.415 553.216 170.45 554.236 171.14C555.286 171.8 556.741 172.13 558.601 172.13H564.271V164.165H557.836C556.006 164.165 554.686 164.525 553.876 165.245C553.096 165.965 552.706 166.895 552.706 168.035Z" fill="#FFF03B"/>
<path d="M326.005 117.162C331.94 119.038 338.298 115.715 340.182 109.754C342.066 103.793 338.772 97.42 332.837 95.5444C326.903 93.6688 320.545 96.9912 318.661 102.952C316.777 108.913 320.071 115.286 326.005 117.162ZM331.699 99.1473C335.655 100.398 337.851 104.646 336.595 108.62C335.339 112.595 331.1 114.81 327.144 113.559C323.188 112.309 320.992 108.06 322.248 104.086C323.504 100.112 327.742 97.8969 331.699 99.1473ZM350.612 11.8435C342.423 12.7267 335.525 18.3853 333.037 26.2578C331.152 32.2242 332.014 38.558 335.387 43.7871L320.925 89.5464C316.427 91.8458 313.011 95.8625 311.487 100.685C308.348 110.618 313.839 121.243 323.728 124.368C333.617 127.493 344.216 121.955 347.356 112.021C348.88 107.199 348.393 101.949 346.033 97.4818L360.495 51.7226C366.261 49.3819 370.607 44.6942 372.493 38.7278C374.981 30.8553 372.588 22.2606 366.394 16.8315L364.232 14.9354L358.43 33.2925L351.769 35.6453L347.669 29.8916L353.471 11.5345L350.612 11.8435ZM350.345 40.149L361.448 36.2276L365.99 21.8536C369.483 26.2267 370.635 32.123 368.906 37.5941C367.286 42.7211 363.439 46.6967 358.355 48.502L357.469 48.8145L341.946 97.9317L342.373 98.6573C344.548 102.356 345.056 106.815 343.769 110.888C341.257 118.834 332.777 123.265 324.866 120.765C316.956 118.265 312.562 109.765 315.074 101.819C316.361 97.7455 319.339 94.3891 323.245 92.6116L324.012 92.2635L339.535 43.1463L338.99 42.3797C335.865 37.9819 335.004 32.5184 336.624 27.3914C338.353 21.9203 342.685 17.7573 348.056 16.1854L343.513 30.5594L350.345 40.149ZM333.321 87.7716L336.908 88.9053C338.886 89.5305 341.006 88.423 341.634 86.436L350.744 57.6124C351.372 55.6254 350.274 53.501 348.296 52.8758L344.709 51.7422C342.731 51.117 340.611 52.2244 339.983 54.2115L330.873 83.0351C330.245 85.0221 331.343 87.1464 333.321 87.7716ZM343.57 55.3451L347.157 56.4787L338.049 85.3029L334.46 84.1687L343.57 55.3451Z" fill="url(#paint0_linear)"/>
<defs>
<linearGradient id="paint0_linear" x1="352.423" y1="133.437" x2="387.723" y2="21.7456" gradientUnits="userSpaceOnUse">
<stop stop-color="#F3903F"/>
<stop offset="1" stop-color="#FFF33B"/>
</linearGradient>
</defs>
</svg>
