<svg width="739" height="187" viewBox="0 0 739 187" fill="none" xmlns="http://www.w3.org/2000/svg">
<path d="M123.75 76.3398C123.75 80.3242 123.223 84.1719 122.168 87.8828C121.152 91.5547 119.707 95.0117 117.832 98.2539C115.957 101.457 113.691 104.387 111.035 107.043C108.379 109.699 105.449 111.984 102.246 113.898C99.043 115.773 95.5859 117.219 91.875 118.234C88.1641 119.289 84.3164 119.816 80.332 119.816C76.3477 119.816 72.5 119.289 68.7891 118.234C65.1172 117.219 61.6602 115.773 58.418 113.898C55.2148 111.984 52.2852 109.699 49.6289 107.043C46.9727 104.387 44.6875 101.457 42.7734 98.2539C40.8984 95.0117 39.4336 91.5547 38.3789 87.8828C37.3633 84.1719 36.8555 80.3242 36.8555 76.3398C36.8555 72.3555 37.3633 68.5078 38.3789 64.7969C39.4336 61.0859 40.8984 57.6289 42.7734 54.4258C44.6875 51.2227 46.9727 48.293 49.6289 45.6367C52.2852 42.9805 55.2148 40.7148 58.418 38.8398C61.6602 36.9648 65.1172 35.5195 68.7891 34.5039C72.5 33.4492 76.3477 32.9219 80.332 32.9219C84.3164 32.9219 88.1641 33.4492 91.875 34.5039C95.5859 35.5195 99.043 36.9648 102.246 38.8398C105.449 40.7148 108.379 42.9805 111.035 45.6367C113.691 48.293 115.957 51.2227 117.832 54.4258C119.707 57.6289 121.152 61.0859 122.168 64.7969C123.223 68.5078 123.75 72.3555 123.75 76.3398ZM107.051 76.3398C107.051 72.668 106.348 69.2109 104.941 65.9688C103.535 62.6875 101.621 59.8555 99.1992 57.4727C96.8164 55.0508 93.9844 53.1367 90.7031 51.7305C87.4609 50.3242 84.0039 49.6211 80.332 49.6211C76.6211 49.6211 73.1445 50.3242 69.9023 51.7305C66.6602 53.1367 63.8281 55.0508 61.4062 57.4727C58.9844 59.8555 57.0703 62.6875 55.6641 65.9688C54.2578 69.2109 53.5547 72.668 53.5547 76.3398C53.5547 80.0117 54.2578 83.4688 55.6641 86.7109C57.0703 89.9141 58.9844 92.7266 61.4062 95.1484C63.8281 97.5703 66.6602 99.4844 69.9023 100.891C73.1445 102.297 76.6211 103 80.332 103C84.0039 103 87.4609 102.297 90.7031 100.891C93.9844 99.4844 96.8164 97.5703 99.1992 95.1484C101.621 92.7266 103.535 89.9141 104.941 86.7109C106.348 83.4688 107.051 80.0117 107.051 76.3398ZM218.203 118H201.445V58C201.445 56.8281 201.211 55.7344 200.742 54.7188C200.312 53.7031 199.707 52.8242 198.926 52.082C198.184 51.3008 197.305 50.6953 196.289 50.2656C195.273 49.8359 194.18 49.6211 193.008 49.6211C191.836 49.6211 190.742 49.8359 189.727 50.2656C188.711 50.6953 187.812 51.3008 187.031 52.082C186.289 52.8242 185.703 53.7031 185.273 54.7188C184.844 55.7344 184.629 56.8281 184.629 58V118H167.812V58C167.812 56.8281 167.598 55.7344 167.168 54.7188C166.738 53.7031 166.133 52.8242 165.352 52.082C164.609 51.3008 163.73 50.6953 162.715 50.2656C161.699 49.8359 160.605 49.6211 159.434 49.6211C158.262 49.6211 157.168 49.8359 156.152 50.2656C155.137 50.6953 154.238 51.3008 153.457 52.082C152.715 52.8242 152.129 53.7031 151.699 54.7188C151.27 55.7344 151.055 56.8281 151.055 58V118H134.238V58C134.238 54.5234 134.883 51.2617 136.172 48.2148C137.5 45.1289 139.297 42.4531 141.562 40.1875C143.867 37.8828 146.543 36.0859 149.59 34.7969C152.676 33.4687 155.957 32.8047 159.434 32.8047C162.559 32.8047 165.566 33.3711 168.457 34.5039C171.348 35.5977 173.945 37.1992 176.25 39.3086C178.555 37.1992 181.133 35.5977 183.984 34.5039C186.875 33.3711 189.883 32.8047 193.008 32.8047C196.484 32.8047 199.746 33.4687 202.793 34.7969C205.879 36.0859 208.555 37.8828 210.82 40.1875C213.125 42.4531 214.922 45.1289 216.211 48.2148C217.539 51.2617 218.203 54.5234 218.203 58V118ZM300.469 118H282.48L250.078 62.6875V118H233.262V33.9766H251.25L283.652 89.3477V33.9766H300.469V118ZM400.195 118H383.379V33.9766H400.195V75.9883L431.484 33.9766H450.586L424.043 69.4258L450.586 118H431.484L413.027 84.0156L400.195 101.184V118ZM537.891 76.3398C537.891 80.3242 537.363 84.1719 536.309 87.8828C535.293 91.5547 533.848 95.0117 531.973 98.2539C530.098 101.457 527.832 104.387 525.176 107.043C522.52 109.699 519.59 111.984 516.387 113.898C513.184 115.773 509.727 117.219 506.016 118.234C502.305 119.289 498.457 119.816 494.473 119.816C490.488 119.816 486.641 119.289 482.93 118.234C479.258 117.219 475.801 115.773 472.559 113.898C469.355 111.984 466.426 109.699 463.77 107.043C461.113 104.387 458.828 101.457 456.914 98.2539C455.039 95.0117 453.574 91.5547 452.52 87.8828C451.504 84.1719 450.996 80.3242 450.996 76.3398C450.996 72.3555 451.504 68.5078 452.52 64.7969C453.574 61.0859 455.039 57.6289 456.914 54.4258C458.828 51.2227 461.113 48.293 463.77 45.6367C466.426 42.9805 469.355 40.7148 472.559 38.8398C475.801 36.9648 479.258 35.5195 482.93 34.5039C486.641 33.4492 490.488 32.9219 494.473 32.9219C498.457 32.9219 502.305 33.4492 506.016 34.5039C509.727 35.5195 513.184 36.9648 516.387 38.8398C519.59 40.7148 522.52 42.9805 525.176 45.6367C527.832 48.293 530.098 51.2227 531.973 54.4258C533.848 57.6289 535.293 61.0859 536.309 64.7969C537.363 68.5078 537.891 72.3555 537.891 76.3398ZM521.191 76.3398C521.191 72.668 520.488 69.2109 519.082 65.9688C517.676 62.6875 515.762 59.8555 513.34 57.4727C510.957 55.0508 508.125 53.1367 504.844 51.7305C501.602 50.3242 498.145 49.6211 494.473 49.6211C490.762 49.6211 487.285 50.3242 484.043 51.7305C480.801 53.1367 477.969 55.0508 475.547 57.4727C473.125 59.8555 471.211 62.6875 469.805 65.9688C468.398 69.2109 467.695 72.668 467.695 76.3398C467.695 80.0117 468.398 83.4688 469.805 86.7109C471.211 89.9141 473.125 92.7266 475.547 95.1484C477.969 97.5703 480.801 99.4844 484.043 100.891C487.285 102.297 490.762 103 494.473 103C498.145 103 501.602 102.297 504.844 100.891C508.125 99.4844 510.957 97.5703 513.34 95.1484C515.762 92.7266 517.676 89.9141 519.082 86.7109C520.488 83.4688 521.191 80.0117 521.191 76.3398ZM632.344 118H615.586V58C615.586 56.8281 615.352 55.7344 614.883 54.7188C614.453 53.7031 613.848 52.8242 613.066 52.082C612.324 51.3008 611.445 50.6953 610.43 50.2656C609.414 49.8359 608.32 49.6211 607.148 49.6211C605.977 49.6211 604.883 49.8359 603.867 50.2656C602.852 50.6953 601.953 51.3008 601.172 52.082C600.43 52.8242 599.844 53.7031 599.414 54.7188C598.984 55.7344 598.77 56.8281 598.77 58V118H581.953V58C581.953 56.8281 581.738 55.7344 581.309 54.7188C580.879 53.7031 580.273 52.8242 579.492 52.082C578.75 51.3008 577.871 50.6953 576.855 50.2656C575.84 49.8359 574.746 49.6211 573.574 49.6211C572.402 49.6211 571.309 49.8359 570.293 50.2656C569.277 50.6953 568.379 51.3008 567.598 52.082C566.855 52.8242 566.27 53.7031 565.84 54.7188C565.41 55.7344 565.195 56.8281 565.195 58V118H548.379V58C548.379 54.5234 549.023 51.2617 550.312 48.2148C551.641 45.1289 553.438 42.4531 555.703 40.1875C558.008 37.8828 560.684 36.0859 563.73 34.7969C566.816 33.4687 570.098 32.8047 573.574 32.8047C576.699 32.8047 579.707 33.3711 582.598 34.5039C585.488 35.5977 588.086 37.1992 590.391 39.3086C592.695 37.1992 595.273 35.5977 598.125 34.5039C601.016 33.3711 604.023 32.8047 607.148 32.8047C610.625 32.8047 613.887 33.4687 616.934 34.7969C620.02 36.0859 622.695 37.8828 624.961 40.1875C627.266 42.4531 629.062 45.1289 630.352 48.2148C631.68 51.2617 632.344 54.5234 632.344 58V118ZM730.781 118H714.023V58C714.023 56.8281 713.789 55.7344 713.32 54.7188C712.891 53.7031 712.285 52.8242 711.504 52.082C710.762 51.3008 709.883 50.6953 708.867 50.2656C707.852 49.8359 706.758 49.6211 705.586 49.6211C704.414 49.6211 703.32 49.8359 702.305 50.2656C701.289 50.6953 700.391 51.3008 699.609 52.082C698.867 52.8242 698.281 53.7031 697.852 54.7188C697.422 55.7344 697.207 56.8281 697.207 58V118H680.391V58C680.391 56.8281 680.176 55.7344 679.746 54.7188C679.316 53.7031 678.711 52.8242 677.93 52.082C677.188 51.3008 676.309 50.6953 675.293 50.2656C674.277 49.8359 673.184 49.6211 672.012 49.6211C670.84 49.6211 669.746 49.8359 668.73 50.2656C667.715 50.6953 666.816 51.3008 666.035 52.082C665.293 52.8242 664.707 53.7031 664.277 54.7188C663.848 55.7344 663.633 56.8281 663.633 58V118H646.816V58C646.816 54.5234 647.461 51.2617 648.75 48.2148C650.078 45.1289 651.875 42.4531 654.141 40.1875C656.445 37.8828 659.121 36.0859 662.168 34.7969C665.254 33.4687 668.535 32.8047 672.012 32.8047C675.137 32.8047 678.145 33.3711 681.035 34.5039C683.926 35.5977 686.523 37.1992 688.828 39.3086C691.133 37.1992 693.711 35.5977 696.562 34.5039C699.453 33.3711 702.461 32.8047 705.586 32.8047C709.062 32.8047 712.324 33.4687 715.371 34.7969C718.457 36.0859 721.133 37.8828 723.398 40.1875C725.703 42.4531 727.5 45.1289 728.789 48.2148C730.117 51.2617 730.781 54.5234 730.781 58V118Z" fill="black"/>
<path d="M137.7 150.88V175H134.145V159.61C134.145 158.98 134.16 158.32 134.19 157.63C134.25 156.94 134.31 156.265 134.37 155.605H134.235L126.36 175H123.03L115.38 155.605H115.245C115.335 156.955 115.38 158.335 115.38 159.745V175H111.825V150.88H117.09L124.695 170.275L132.435 150.88H137.7ZM156.559 150.475C159.499 150.475 161.674 151.12 163.084 152.41C164.494 153.7 165.199 155.755 165.199 158.575V175H162.319L161.554 171.58H161.374C160.324 172.9 159.214 173.875 158.044 174.505C156.904 175.135 155.314 175.45 153.274 175.45C151.084 175.45 149.269 174.88 147.829 173.74C146.389 172.57 145.669 170.755 145.669 168.295C145.669 165.895 146.614 164.05 148.504 162.76C150.394 161.44 153.304 160.72 157.234 160.6L161.329 160.465V159.025C161.329 157.015 160.894 155.62 160.024 154.84C159.154 154.06 157.924 153.67 156.334 153.67C155.074 153.67 153.874 153.865 152.734 154.255C151.594 154.615 150.529 155.035 149.539 155.515L148.324 152.545C149.374 151.975 150.619 151.495 152.059 151.105C153.499 150.685 154.999 150.475 156.559 150.475ZM161.284 163.21L157.729 163.345C154.729 163.465 152.644 163.945 151.474 164.785C150.334 165.625 149.764 166.81 149.764 168.34C149.764 169.69 150.169 170.68 150.979 171.31C151.819 171.94 152.884 172.255 154.174 172.255C156.214 172.255 157.909 171.7 159.259 170.59C160.609 169.45 161.284 167.71 161.284 165.37V163.21ZM184.349 175.45C182.219 175.45 180.314 175.015 178.634 174.145C176.984 173.275 175.679 171.925 174.719 170.095C173.789 168.265 173.324 165.925 173.324 163.075C173.324 160.105 173.819 157.69 174.809 155.83C175.799 153.97 177.134 152.605 178.814 151.735C180.524 150.865 182.459 150.43 184.619 150.43C185.849 150.43 187.034 150.565 188.174 150.835C189.314 151.075 190.244 151.375 190.964 151.735L189.749 155.02C189.029 154.75 188.189 154.495 187.229 154.255C186.269 154.015 185.369 153.895 184.529 153.895C179.789 153.895 177.419 156.94 177.419 163.03C177.419 165.94 177.989 168.175 179.129 169.735C180.299 171.265 182.024 172.03 184.304 172.03C185.624 172.03 186.779 171.895 187.769 171.625C188.789 171.355 189.719 171.025 190.559 170.635V174.145C189.749 174.565 188.849 174.88 187.859 175.09C186.899 175.33 185.729 175.45 184.349 175.45ZM214.97 154.21H207.095V175H203.18V154.21H195.395V150.88H214.97V154.21ZM230.622 150.43C232.692 150.43 234.462 150.88 235.932 151.78C237.432 152.68 238.572 153.955 239.352 155.605C240.162 157.225 240.567 159.13 240.567 161.32V163.705H224.052C224.112 166.435 224.802 168.52 226.122 169.96C227.472 171.37 229.347 172.075 231.747 172.075C233.277 172.075 234.627 171.94 235.797 171.67C236.997 171.37 238.227 170.95 239.487 170.41V173.875C238.257 174.415 237.042 174.805 235.842 175.045C234.642 175.315 233.217 175.45 231.567 175.45C229.287 175.45 227.262 174.985 225.492 174.055C223.752 173.125 222.387 171.745 221.397 169.915C220.437 168.055 219.957 165.79 219.957 163.12C219.957 160.48 220.392 158.215 221.262 156.325C222.162 154.435 223.407 152.98 224.997 151.96C226.617 150.94 228.492 150.43 230.622 150.43ZM230.577 153.67C228.687 153.67 227.187 154.285 226.077 155.515C224.997 156.715 224.352 158.395 224.142 160.555H236.427C236.397 158.515 235.917 156.865 234.987 155.605C234.057 154.315 232.587 153.67 230.577 153.67ZM260.207 150.43C263.177 150.43 265.562 151.465 267.362 153.535C269.192 155.605 270.107 158.725 270.107 162.895C270.107 167.005 269.192 170.125 267.362 172.255C265.562 174.385 263.162 175.45 260.162 175.45C258.302 175.45 256.757 175.105 255.527 174.415C254.327 173.695 253.382 172.87 252.692 171.94H252.422C252.482 172.45 252.542 173.095 252.602 173.875C252.662 174.655 252.692 175.33 252.692 175.9V185.8H248.732V150.88H251.972L252.512 154.165H252.692C253.412 153.115 254.357 152.23 255.527 151.51C256.697 150.79 258.257 150.43 260.207 150.43ZM259.487 153.76C257.027 153.76 255.287 154.45 254.267 155.83C253.277 157.21 252.752 159.31 252.692 162.13V162.895C252.692 165.865 253.172 168.16 254.132 169.78C255.122 171.37 256.937 172.165 259.577 172.165C261.047 172.165 262.247 171.76 263.177 170.95C264.137 170.14 264.842 169.045 265.292 167.665C265.772 166.255 266.012 164.65 266.012 162.85C266.012 160.09 265.472 157.885 264.392 156.235C263.342 154.585 261.707 153.76 259.487 153.76ZM288.118 175.45C285.988 175.45 284.083 175.015 282.403 174.145C280.753 173.275 279.448 171.925 278.488 170.095C277.558 168.265 277.093 165.925 277.093 163.075C277.093 160.105 277.588 157.69 278.578 155.83C279.568 153.97 280.903 152.605 282.583 151.735C284.293 150.865 286.228 150.43 288.388 150.43C289.618 150.43 290.803 150.565 291.943 150.835C293.083 151.075 294.013 151.375 294.733 151.735L293.518 155.02C292.798 154.75 291.958 154.495 290.998 154.255C290.038 154.015 289.138 153.895 288.298 153.895C283.558 153.895 281.188 156.94 281.188 163.03C281.188 165.94 281.758 168.175 282.898 169.735C284.068 171.265 285.793 172.03 288.073 172.03C289.393 172.03 290.548 171.895 291.538 171.625C292.558 171.355 293.488 171.025 294.328 170.635V174.145C293.518 174.565 292.618 174.88 291.628 175.09C290.668 175.33 289.498 175.45 288.118 175.45ZM316.354 150.88H320.674L310.369 162.49L321.529 175H316.939L306.049 162.76V175H302.089V150.88H306.049V162.58L316.354 150.88ZM337.067 150.475C340.007 150.475 342.182 151.12 343.592 152.41C345.002 153.7 345.707 155.755 345.707 158.575V175H342.827L342.062 171.58H341.882C340.832 172.9 339.722 173.875 338.552 174.505C337.412 175.135 335.822 175.45 333.782 175.45C331.592 175.45 329.777 174.88 328.337 173.74C326.897 172.57 326.177 170.755 326.177 168.295C326.177 165.895 327.122 164.05 329.012 162.76C330.902 161.44 333.812 160.72 337.742 160.6L341.837 160.465V159.025C341.837 157.015 341.402 155.62 340.532 154.84C339.662 154.06 338.432 153.67 336.842 153.67C335.582 153.67 334.382 153.865 333.242 154.255C332.102 154.615 331.037 155.035 330.047 155.515L328.832 152.545C329.882 151.975 331.127 151.495 332.567 151.105C334.007 150.685 335.507 150.475 337.067 150.475ZM341.792 163.21L338.237 163.345C335.237 163.465 333.152 163.945 331.982 164.785C330.842 165.625 330.272 166.81 330.272 168.34C330.272 169.69 330.677 170.68 331.487 171.31C332.327 171.94 333.392 172.255 334.682 172.255C336.722 172.255 338.417 171.7 339.767 170.59C341.117 169.45 341.792 167.71 341.792 165.37V163.21ZM356.667 175H352.077L358.962 164.875C358.032 164.635 357.132 164.26 356.262 163.75C355.392 163.21 354.687 162.475 354.147 161.545C353.607 160.585 353.337 159.4 353.337 157.99C353.337 155.68 354.117 153.925 355.677 152.725C357.237 151.495 359.307 150.88 361.887 150.88H372.687V175H368.727V165.415H362.877L356.667 175ZM357.162 158.035C357.162 159.415 357.672 160.45 358.692 161.14C359.742 161.8 361.197 162.13 363.057 162.13H368.727V154.165H362.292C360.462 154.165 359.142 154.525 358.332 155.245C357.552 155.965 357.162 156.895 357.162 158.035ZM416.376 156.955C416.376 158.455 415.926 159.625 415.026 160.465C414.126 161.305 412.971 161.875 411.561 162.175V162.355C413.061 162.565 414.366 163.105 415.476 163.975C416.586 164.815 417.141 166.135 417.141 167.935C417.141 169.975 416.376 171.67 414.846 173.02C413.346 174.34 410.856 175 407.376 175H396.981V150.88H407.331C409.041 150.88 410.571 151.075 411.921 151.465C413.301 151.825 414.381 152.455 415.161 153.355C415.971 154.225 416.376 155.425 416.376 156.955ZM412.371 157.45C412.371 156.31 411.951 155.485 411.111 154.975C410.301 154.435 408.966 154.165 407.106 154.165H400.941V160.78H406.386C410.376 160.78 412.371 159.67 412.371 157.45ZM413.046 167.935C413.046 166.555 412.521 165.565 411.471 164.965C410.421 164.365 408.876 164.065 406.836 164.065H400.941V171.805H406.926C408.906 171.805 410.421 171.52 411.471 170.95C412.521 170.35 413.046 169.345 413.046 167.935ZM449.246 175.45C447.116 175.45 445.211 175.015 443.531 174.145C441.881 173.275 440.576 171.925 439.616 170.095C438.686 168.265 438.221 165.925 438.221 163.075C438.221 160.105 438.716 157.69 439.706 155.83C440.696 153.97 442.031 152.605 443.711 151.735C445.421 150.865 447.356 150.43 449.516 150.43C450.746 150.43 451.931 150.565 453.071 150.835C454.211 151.075 455.141 151.375 455.861 151.735L454.646 155.02C453.926 154.75 453.086 154.495 452.126 154.255C451.166 154.015 450.266 153.895 449.426 153.895C444.686 153.895 442.316 156.94 442.316 163.03C442.316 165.94 442.886 168.175 444.026 169.735C445.196 171.265 446.921 172.03 449.201 172.03C450.521 172.03 451.676 171.895 452.666 171.625C453.686 171.355 454.616 171.025 455.456 170.635V174.145C454.646 174.565 453.746 174.88 452.756 175.09C451.796 175.33 450.626 175.45 449.246 175.45ZM472.352 150.475C475.292 150.475 477.467 151.12 478.877 152.41C480.287 153.7 480.992 155.755 480.992 158.575V175H478.112L477.347 171.58H477.167C476.117 172.9 475.007 173.875 473.837 174.505C472.697 175.135 471.107 175.45 469.067 175.45C466.877 175.45 465.062 174.88 463.622 173.74C462.182 172.57 461.462 170.755 461.462 168.295C461.462 165.895 462.407 164.05 464.297 162.76C466.187 161.44 469.097 160.72 473.027 160.6L477.122 160.465V159.025C477.122 157.015 476.687 155.62 475.817 154.84C474.947 154.06 473.717 153.67 472.127 153.67C470.867 153.67 469.667 153.865 468.527 154.255C467.387 154.615 466.322 155.035 465.332 155.515L464.117 152.545C465.167 151.975 466.412 151.495 467.852 151.105C469.292 150.685 470.792 150.475 472.352 150.475ZM477.077 163.21L473.522 163.345C470.522 163.465 468.437 163.945 467.267 164.785C466.127 165.625 465.557 166.81 465.557 168.34C465.557 169.69 465.962 170.68 466.772 171.31C467.612 171.94 468.677 172.255 469.967 172.255C472.007 172.255 473.702 171.7 475.052 170.59C476.402 169.45 477.077 167.71 477.077 165.37V163.21ZM501.942 150.43C504.912 150.43 507.297 151.465 509.097 153.535C510.927 155.605 511.842 158.725 511.842 162.895C511.842 167.005 510.927 170.125 509.097 172.255C507.297 174.385 504.897 175.45 501.897 175.45C500.037 175.45 498.492 175.105 497.262 174.415C496.062 173.695 495.117 172.87 494.427 171.94H494.157C494.217 172.45 494.277 173.095 494.337 173.875C494.397 174.655 494.427 175.33 494.427 175.9V185.8H490.467V150.88H493.707L494.247 154.165H494.427C495.147 153.115 496.092 152.23 497.262 151.51C498.432 150.79 499.992 150.43 501.942 150.43ZM501.222 153.76C498.762 153.76 497.022 154.45 496.002 155.83C495.012 157.21 494.487 159.31 494.427 162.13V162.895C494.427 165.865 494.907 168.16 495.867 169.78C496.857 171.37 498.672 172.165 501.312 172.165C502.782 172.165 503.982 171.76 504.912 170.95C505.872 170.14 506.577 169.045 507.027 167.665C507.507 166.255 507.747 164.65 507.747 162.85C507.747 160.09 507.207 157.885 506.127 156.235C505.077 154.585 503.442 153.76 501.222 153.76ZM529.312 150.475C532.252 150.475 534.427 151.12 535.837 152.41C537.247 153.7 537.952 155.755 537.952 158.575V175H535.072L534.307 171.58H534.127C533.077 172.9 531.967 173.875 530.797 174.505C529.657 175.135 528.067 175.45 526.027 175.45C523.837 175.45 522.022 174.88 520.582 173.74C519.142 172.57 518.422 170.755 518.422 168.295C518.422 165.895 519.367 164.05 521.257 162.76C523.147 161.44 526.057 160.72 529.987 160.6L534.082 160.465V159.025C534.082 157.015 533.647 155.62 532.777 154.84C531.907 154.06 530.677 153.67 529.087 153.67C527.827 153.67 526.627 153.865 525.487 154.255C524.347 154.615 523.282 155.035 522.292 155.515L521.077 152.545C522.127 151.975 523.372 151.495 524.812 151.105C526.252 150.685 527.752 150.475 529.312 150.475ZM534.037 163.21L530.482 163.345C527.482 163.465 525.397 163.945 524.227 164.785C523.087 165.625 522.517 166.81 522.517 168.34C522.517 169.69 522.922 170.68 523.732 171.31C524.572 171.94 525.637 172.255 526.927 172.255C528.967 172.255 530.662 171.7 532.012 170.59C533.362 169.45 534.037 167.71 534.037 165.37V163.21ZM551.387 150.88V160.915H564.482V150.88H568.442V175H564.482V164.245H551.387V175H547.427V150.88H551.387ZM587.779 175.45C585.649 175.45 583.744 175.015 582.064 174.145C580.414 173.275 579.109 171.925 578.149 170.095C577.219 168.265 576.754 165.925 576.754 163.075C576.754 160.105 577.249 157.69 578.239 155.83C579.229 153.97 580.564 152.605 582.244 151.735C583.954 150.865 585.889 150.43 588.049 150.43C589.279 150.43 590.464 150.565 591.604 150.835C592.744 151.075 593.674 151.375 594.394 151.735L593.179 155.02C592.459 154.75 591.619 154.495 590.659 154.255C589.699 154.015 588.799 153.895 587.959 153.895C583.219 153.895 580.849 156.94 580.849 163.03C580.849 165.94 581.419 168.175 582.559 169.735C583.729 171.265 585.454 172.03 587.734 172.03C589.054 172.03 590.209 171.895 591.199 171.625C592.219 171.355 593.149 171.025 593.989 170.635V174.145C593.179 174.565 592.279 174.88 591.289 175.09C590.329 175.33 589.159 175.45 587.779 175.45ZM616.015 150.88H620.335L610.03 162.49L621.19 175H616.6L605.71 162.76V175H601.75V150.88H605.71V162.58L616.015 150.88ZM636.03 150.43C638.1 150.43 639.87 150.88 641.34 151.78C642.84 152.68 643.98 153.955 644.76 155.605C645.57 157.225 645.975 159.13 645.975 161.32V163.705H629.46C629.52 166.435 630.21 168.52 631.53 169.96C632.88 171.37 634.755 172.075 637.155 172.075C638.685 172.075 640.035 171.94 641.205 171.67C642.405 171.37 643.635 170.95 644.895 170.41V173.875C643.665 174.415 642.45 174.805 641.25 175.045C640.05 175.315 638.625 175.45 636.975 175.45C634.695 175.45 632.67 174.985 630.9 174.055C629.16 173.125 627.795 171.745 626.805 169.915C625.845 168.055 625.365 165.79 625.365 163.12C625.365 160.48 625.8 158.215 626.67 156.325C627.57 154.435 628.815 152.98 630.405 151.96C632.025 150.94 633.9 150.43 636.03 150.43ZM635.985 153.67C634.095 153.67 632.595 154.285 631.485 155.515C630.405 156.715 629.76 158.395 629.55 160.555H641.835C641.805 158.515 641.325 156.865 640.395 155.605C639.465 154.315 637.995 153.67 635.985 153.67Z" fill="#412FDD"/>
<path d="M326.005 117.162C331.94 119.038 338.298 115.715 340.182 109.754C342.066 103.793 338.772 97.42 332.838 95.5444C326.903 93.6688 320.545 96.9912 318.661 102.952C316.777 108.913 320.071 115.286 326.005 117.162ZM331.699 99.1473C335.655 100.398 337.851 104.646 336.595 108.62C335.339 112.595 331.1 114.81 327.144 113.559C323.188 112.309 320.992 108.06 322.248 104.086C323.504 100.112 327.742 97.8969 331.699 99.1473ZM350.612 11.8435C342.423 12.7267 335.525 18.3853 333.037 26.2578C331.152 32.2242 332.014 38.558 335.387 43.7871L320.925 89.5464C316.427 91.8458 313.011 95.8625 311.487 100.685C308.348 110.618 313.839 121.243 323.728 124.368C333.617 127.493 344.216 121.955 347.356 112.021C348.88 107.199 348.393 101.949 346.033 97.4818L360.495 51.7226C366.261 49.3819 370.607 44.6942 372.493 38.7278C374.981 30.8553 372.588 22.2606 366.394 16.8315L364.232 14.9354L358.43 33.2925L351.769 35.6453L347.669 29.8916L353.471 11.5345L350.612 11.8435ZM350.345 40.149L361.448 36.2276L365.99 21.8536C369.483 26.2267 370.635 32.123 368.906 37.5941C367.286 42.7211 363.439 46.6967 358.355 48.502L357.469 48.8145L341.946 97.9317L342.373 98.6573C344.548 102.356 345.056 106.815 343.769 110.888C341.257 118.834 332.777 123.265 324.866 120.765C316.956 118.265 312.562 109.765 315.074 101.819C316.361 97.7455 319.339 94.3891 323.245 92.6116L324.012 92.2635L339.535 43.1463L338.99 42.3797C335.865 37.9819 335.004 32.5184 336.624 27.3914C338.353 21.9203 342.685 17.7573 348.056 16.1854L343.513 30.5594L350.345 40.149ZM333.322 87.7716L336.908 88.9053C338.887 89.5305 341.006 88.423 341.634 86.436L350.744 57.6124C351.372 55.6254 350.274 53.501 348.296 52.8758L344.709 51.7422C342.731 51.117 340.611 52.2244 339.983 54.2115L330.873 83.0351C330.245 85.0221 331.343 87.1464 333.322 87.7716ZM343.57 55.3451L347.157 56.4787L338.049 85.3029L334.46 84.1687L343.57 55.3451Z" fill="url(#paint0_linear)"/>
<defs>
<linearGradient id="paint0_linear" x1="352.423" y1="133.437" x2="387.723" y2="21.7456" gradientUnits="userSpaceOnUse">
<stop stop-color="#9F2FFF"/>
<stop offset="1" stop-color="#0BB1D3"/>
</linearGradient>
</defs>
</svg>
