<svg width="705" height="187" viewBox="0 0 705 187" fill="none" xmlns="http://www.w3.org/2000/svg">
<path d="M90.1172 76.3398C90.1172 80.3242 89.5898 84.1719 88.5352 87.8828C87.5195 91.5547 86.0742 95.0117 84.1992 98.2539C82.3242 101.457 80.0586 104.387 77.4023 107.043C74.7461 109.699 71.8164 111.984 68.6133 113.898C65.4102 115.773 61.9531 117.219 58.2422 118.234C54.5312 119.289 50.6836 119.816 46.6992 119.816C42.7148 119.816 38.8672 119.289 35.1562 118.234C31.4844 117.219 28.0273 115.773 24.7852 113.898C21.582 111.984 18.6523 109.699 15.9961 107.043C13.3398 104.387 11.0547 101.457 9.14062 98.2539C7.26562 95.0117 5.80078 91.5547 4.74609 87.8828C3.73047 84.1719 3.22266 80.3242 3.22266 76.3398C3.22266 72.3555 3.73047 68.5078 4.74609 64.7969C5.80078 61.0859 7.26562 57.6289 9.14062 54.4258C11.0547 51.2227 13.3398 48.293 15.9961 45.6367C18.6523 42.9805 21.582 40.7148 24.7852 38.8398C28.0273 36.9648 31.4844 35.5195 35.1562 34.5039C38.8672 33.4492 42.7148 32.9219 46.6992 32.9219C50.6836 32.9219 54.5312 33.4492 58.2422 34.5039C61.9531 35.5195 65.4102 36.9648 68.6133 38.8398C71.8164 40.7148 74.7461 42.9805 77.4023 45.6367C80.0586 48.293 82.3242 51.2227 84.1992 54.4258C86.0742 57.6289 87.5195 61.0859 88.5352 64.7969C89.5898 68.5078 90.1172 72.3555 90.1172 76.3398ZM73.418 76.3398C73.418 72.668 72.7148 69.2109 71.3086 65.9688C69.9023 62.6875 67.9883 59.8555 65.5664 57.4727C63.1836 55.0508 60.3516 53.1367 57.0703 51.7305C53.8281 50.3242 50.3711 49.6211 46.6992 49.6211C42.9883 49.6211 39.5117 50.3242 36.2695 51.7305C33.0273 53.1367 30.1953 55.0508 27.7734 57.4727C25.3516 59.8555 23.4375 62.6875 22.0312 65.9688C20.625 69.2109 19.9219 72.668 19.9219 76.3398C19.9219 80.0117 20.625 83.4688 22.0312 86.7109C23.4375 89.9141 25.3516 92.7266 27.7734 95.1484C30.1953 97.5703 33.0273 99.4844 36.2695 100.891C39.5117 102.297 42.9883 103 46.6992 103C50.3711 103 53.8281 102.297 57.0703 100.891C60.3516 99.4844 63.1836 97.5703 65.5664 95.1484C67.9883 92.7266 69.9023 89.9141 71.3086 86.7109C72.7148 83.4688 73.418 80.0117 73.418 76.3398ZM184.57 118H167.812V58C167.812 56.8281 167.578 55.7344 167.109 54.7188C166.68 53.7031 166.074 52.8242 165.293 52.082C164.551 51.3008 163.672 50.6953 162.656 50.2656C161.641 49.8359 160.547 49.6211 159.375 49.6211C158.203 49.6211 157.109 49.8359 156.094 50.2656C155.078 50.6953 154.18 51.3008 153.398 52.082C152.656 52.8242 152.07 53.7031 151.641 54.7188C151.211 55.7344 150.996 56.8281 150.996 58V118H134.18V58C134.18 56.8281 133.965 55.7344 133.535 54.7188C133.105 53.7031 132.5 52.8242 131.719 52.082C130.977 51.3008 130.098 50.6953 129.082 50.2656C128.066 49.8359 126.973 49.6211 125.801 49.6211C124.629 49.6211 123.535 49.8359 122.52 50.2656C121.504 50.6953 120.605 51.3008 119.824 52.082C119.082 52.8242 118.496 53.7031 118.066 54.7188C117.637 55.7344 117.422 56.8281 117.422 58V118H100.605V58C100.605 54.5234 101.25 51.2617 102.539 48.2148C103.867 45.1289 105.664 42.4531 107.93 40.1875C110.234 37.8828 112.91 36.0859 115.957 34.7969C119.043 33.4687 122.324 32.8047 125.801 32.8047C128.926 32.8047 131.934 33.3711 134.824 34.5039C137.715 35.5977 140.312 37.1992 142.617 39.3086C144.922 37.1992 147.5 35.5977 150.352 34.5039C153.242 33.3711 156.25 32.8047 159.375 32.8047C162.852 32.8047 166.113 33.4687 169.16 34.7969C172.246 36.0859 174.922 37.8828 177.188 40.1875C179.492 42.4531 181.289 45.1289 182.578 48.2148C183.906 51.2617 184.57 54.5234 184.57 58V118ZM266.836 118H248.848L216.445 62.6875V118H199.629V33.9766H217.617L250.02 89.3477V33.9766H266.836V118ZM366.562 118H349.746V33.9766H366.562V75.9883L397.852 33.9766H416.953L390.41 69.4258L416.953 118H397.852L379.395 84.0156L366.562 101.184V118ZM504.258 76.3398C504.258 80.3242 503.73 84.1719 502.676 87.8828C501.66 91.5547 500.215 95.0117 498.34 98.2539C496.465 101.457 494.199 104.387 491.543 107.043C488.887 109.699 485.957 111.984 482.754 113.898C479.551 115.773 476.094 117.219 472.383 118.234C468.672 119.289 464.824 119.816 460.84 119.816C456.855 119.816 453.008 119.289 449.297 118.234C445.625 117.219 442.168 115.773 438.926 113.898C435.723 111.984 432.793 109.699 430.137 107.043C427.48 104.387 425.195 101.457 423.281 98.2539C421.406 95.0117 419.941 91.5547 418.887 87.8828C417.871 84.1719 417.363 80.3242 417.363 76.3398C417.363 72.3555 417.871 68.5078 418.887 64.7969C419.941 61.0859 421.406 57.6289 423.281 54.4258C425.195 51.2227 427.48 48.293 430.137 45.6367C432.793 42.9805 435.723 40.7148 438.926 38.8398C442.168 36.9648 445.625 35.5195 449.297 34.5039C453.008 33.4492 456.855 32.9219 460.84 32.9219C464.824 32.9219 468.672 33.4492 472.383 34.5039C476.094 35.5195 479.551 36.9648 482.754 38.8398C485.957 40.7148 488.887 42.9805 491.543 45.6367C494.199 48.293 496.465 51.2227 498.34 54.4258C500.215 57.6289 501.66 61.0859 502.676 64.7969C503.73 68.5078 504.258 72.3555 504.258 76.3398ZM487.559 76.3398C487.559 72.668 486.855 69.2109 485.449 65.9688C484.043 62.6875 482.129 59.8555 479.707 57.4727C477.324 55.0508 474.492 53.1367 471.211 51.7305C467.969 50.3242 464.512 49.6211 460.84 49.6211C457.129 49.6211 453.652 50.3242 450.41 51.7305C447.168 53.1367 444.336 55.0508 441.914 57.4727C439.492 59.8555 437.578 62.6875 436.172 65.9688C434.766 69.2109 434.062 72.668 434.062 76.3398C434.062 80.0117 434.766 83.4688 436.172 86.7109C437.578 89.9141 439.492 92.7266 441.914 95.1484C444.336 97.5703 447.168 99.4844 450.41 100.891C453.652 102.297 457.129 103 460.84 103C464.512 103 467.969 102.297 471.211 100.891C474.492 99.4844 477.324 97.5703 479.707 95.1484C482.129 92.7266 484.043 89.9141 485.449 86.7109C486.855 83.4688 487.559 80.0117 487.559 76.3398ZM598.711 118H581.953V58C581.953 56.8281 581.719 55.7344 581.25 54.7188C580.82 53.7031 580.215 52.8242 579.434 52.082C578.691 51.3008 577.812 50.6953 576.797 50.2656C575.781 49.8359 574.688 49.6211 573.516 49.6211C572.344 49.6211 571.25 49.8359 570.234 50.2656C569.219 50.6953 568.32 51.3008 567.539 52.082C566.797 52.8242 566.211 53.7031 565.781 54.7188C565.352 55.7344 565.137 56.8281 565.137 58V118H548.32V58C548.32 56.8281 548.105 55.7344 547.676 54.7188C547.246 53.7031 546.641 52.8242 545.859 52.082C545.117 51.3008 544.238 50.6953 543.223 50.2656C542.207 49.8359 541.113 49.6211 539.941 49.6211C538.77 49.6211 537.676 49.8359 536.66 50.2656C535.645 50.6953 534.746 51.3008 533.965 52.082C533.223 52.8242 532.637 53.7031 532.207 54.7188C531.777 55.7344 531.562 56.8281 531.562 58V118H514.746V58C514.746 54.5234 515.391 51.2617 516.68 48.2148C518.008 45.1289 519.805 42.4531 522.07 40.1875C524.375 37.8828 527.051 36.0859 530.098 34.7969C533.184 33.4687 536.465 32.8047 539.941 32.8047C543.066 32.8047 546.074 33.3711 548.965 34.5039C551.855 35.5977 554.453 37.1992 556.758 39.3086C559.062 37.1992 561.641 35.5977 564.492 34.5039C567.383 33.3711 570.391 32.8047 573.516 32.8047C576.992 32.8047 580.254 33.4687 583.301 34.7969C586.387 36.0859 589.062 37.8828 591.328 40.1875C593.633 42.4531 595.43 45.1289 596.719 48.2148C598.047 51.2617 598.711 54.5234 598.711 58V118ZM697.148 118H680.391V58C680.391 56.8281 680.156 55.7344 679.688 54.7188C679.258 53.7031 678.652 52.8242 677.871 52.082C677.129 51.3008 676.25 50.6953 675.234 50.2656C674.219 49.8359 673.125 49.6211 671.953 49.6211C670.781 49.6211 669.688 49.8359 668.672 50.2656C667.656 50.6953 666.758 51.3008 665.977 52.082C665.234 52.8242 664.648 53.7031 664.219 54.7188C663.789 55.7344 663.574 56.8281 663.574 58V118H646.758V58C646.758 56.8281 646.543 55.7344 646.113 54.7188C645.684 53.7031 645.078 52.8242 644.297 52.082C643.555 51.3008 642.676 50.6953 641.66 50.2656C640.645 49.8359 639.551 49.6211 638.379 49.6211C637.207 49.6211 636.113 49.8359 635.098 50.2656C634.082 50.6953 633.184 51.3008 632.402 52.082C631.66 52.8242 631.074 53.7031 630.645 54.7188C630.215 55.7344 630 56.8281 630 58V118H613.184V58C613.184 54.5234 613.828 51.2617 615.117 48.2148C616.445 45.1289 618.242 42.4531 620.508 40.1875C622.812 37.8828 625.488 36.0859 628.535 34.7969C631.621 33.4687 634.902 32.8047 638.379 32.8047C641.504 32.8047 644.512 33.3711 647.402 34.5039C650.293 35.5977 652.891 37.1992 655.195 39.3086C657.5 37.1992 660.078 35.5977 662.93 34.5039C665.82 33.3711 668.828 32.8047 671.953 32.8047C675.43 32.8047 678.691 33.4687 681.738 34.7969C684.824 36.0859 687.5 37.8828 689.766 40.1875C692.07 42.4531 693.867 45.1289 695.156 48.2148C696.484 51.2617 697.148 54.5234 697.148 58V118Z" fill="white"/>
<path d="M163.22 156.955C163.22 158.455 162.77 159.625 161.87 160.465C160.97 161.305 159.815 161.875 158.405 162.175V162.355C159.905 162.565 161.21 163.105 162.32 163.975C163.43 164.815 163.985 166.135 163.985 167.935C163.985 169.975 163.22 171.67 161.69 173.02C160.19 174.34 157.7 175 154.22 175H143.825V150.88H154.175C155.885 150.88 157.415 151.075 158.765 151.465C160.145 151.825 161.225 152.455 162.005 153.355C162.815 154.225 163.22 155.425 163.22 156.955ZM159.215 157.45C159.215 156.31 158.795 155.485 157.955 154.975C157.145 154.435 155.81 154.165 153.95 154.165H147.785V160.78H153.23C157.22 160.78 159.215 159.67 159.215 157.45ZM159.89 167.935C159.89 166.555 159.365 165.565 158.315 164.965C157.265 164.365 155.72 164.065 153.68 164.065H147.785V171.805H153.77C155.75 171.805 157.265 171.52 158.315 170.95C159.365 170.35 159.89 169.345 159.89 167.935ZM180.913 150.475C183.853 150.475 186.028 151.12 187.438 152.41C188.848 153.7 189.553 155.755 189.553 158.575V175H186.673L185.908 171.58H185.728C184.678 172.9 183.568 173.875 182.398 174.505C181.258 175.135 179.668 175.45 177.628 175.45C175.438 175.45 173.623 174.88 172.183 173.74C170.743 172.57 170.023 170.755 170.023 168.295C170.023 165.895 170.968 164.05 172.858 162.76C174.748 161.44 177.658 160.72 181.588 160.6L185.683 160.465V159.025C185.683 157.015 185.248 155.62 184.378 154.84C183.508 154.06 182.278 153.67 180.688 153.67C179.428 153.67 178.228 153.865 177.088 154.255C175.948 154.615 174.883 155.035 173.893 155.515L172.678 152.545C173.728 151.975 174.973 151.495 176.413 151.105C177.853 150.685 179.353 150.475 180.913 150.475ZM185.638 163.21L182.083 163.345C179.083 163.465 176.998 163.945 175.828 164.785C174.688 165.625 174.118 166.81 174.118 168.34C174.118 169.69 174.523 170.68 175.333 171.31C176.173 171.94 177.238 172.255 178.528 172.255C180.568 172.255 182.263 171.7 183.613 170.59C184.963 169.45 185.638 167.71 185.638 165.37V163.21ZM231.742 150.88V175H199.027V150.88H202.987V171.67H213.382V150.88H217.342V171.67H227.782V150.88H231.742ZM250.617 150.475C253.557 150.475 255.732 151.12 257.142 152.41C258.552 153.7 259.257 155.755 259.257 158.575V175H256.377L255.612 171.58H255.432C254.382 172.9 253.272 173.875 252.102 174.505C250.962 175.135 249.372 175.45 247.332 175.45C245.142 175.45 243.327 174.88 241.887 173.74C240.447 172.57 239.727 170.755 239.727 168.295C239.727 165.895 240.672 164.05 242.562 162.76C244.452 161.44 247.362 160.72 251.292 160.6L255.387 160.465V159.025C255.387 157.015 254.952 155.62 254.082 154.84C253.212 154.06 251.982 153.67 250.392 153.67C249.132 153.67 247.932 153.865 246.792 154.255C245.652 154.615 244.587 155.035 243.597 155.515L242.382 152.545C243.432 151.975 244.677 151.495 246.117 151.105C247.557 150.685 249.057 150.475 250.617 150.475ZM255.342 163.21L251.787 163.345C248.787 163.465 246.702 163.945 245.532 164.785C244.392 165.625 243.822 166.81 243.822 168.34C243.822 169.69 244.227 170.68 245.037 171.31C245.877 171.94 246.942 172.255 248.232 172.255C250.272 172.255 251.967 171.7 253.317 170.59C254.667 169.45 255.342 167.71 255.342 165.37V163.21ZM309.244 150.88V175H305.689V159.61C305.689 158.98 305.704 158.32 305.734 157.63C305.794 156.94 305.854 156.265 305.914 155.605H305.779L297.904 175H294.574L286.924 155.605H286.789C286.879 156.955 286.924 158.335 286.924 159.745V175H283.369V150.88H288.634L296.239 170.275L303.979 150.88H309.244ZM328.103 150.475C331.043 150.475 333.218 151.12 334.628 152.41C336.038 153.7 336.743 155.755 336.743 158.575V175H333.863L333.098 171.58H332.918C331.868 172.9 330.758 173.875 329.588 174.505C328.448 175.135 326.858 175.45 324.818 175.45C322.628 175.45 320.813 174.88 319.373 173.74C317.933 172.57 317.213 170.755 317.213 168.295C317.213 165.895 318.158 164.05 320.048 162.76C321.938 161.44 324.848 160.72 328.778 160.6L332.873 160.465V159.025C332.873 157.015 332.438 155.62 331.568 154.84C330.698 154.06 329.468 153.67 327.878 153.67C326.618 153.67 325.418 153.865 324.278 154.255C323.138 154.615 322.073 155.035 321.083 155.515L319.868 152.545C320.918 151.975 322.163 151.495 323.603 151.105C325.043 150.685 326.543 150.475 328.103 150.475ZM332.828 163.21L329.273 163.345C326.273 163.465 324.188 163.945 323.018 164.785C321.878 165.625 321.308 166.81 321.308 168.34C321.308 169.69 321.713 170.68 322.523 171.31C323.363 171.94 324.428 172.255 325.718 172.255C327.758 172.255 329.453 171.7 330.803 170.59C332.153 169.45 332.828 167.71 332.828 165.37V163.21ZM355.893 175.45C353.763 175.45 351.858 175.015 350.178 174.145C348.528 173.275 347.223 171.925 346.263 170.095C345.333 168.265 344.868 165.925 344.868 163.075C344.868 160.105 345.363 157.69 346.353 155.83C347.343 153.97 348.678 152.605 350.358 151.735C352.068 150.865 354.003 150.43 356.163 150.43C357.393 150.43 358.578 150.565 359.718 150.835C360.858 151.075 361.788 151.375 362.508 151.735L361.293 155.02C360.573 154.75 359.733 154.495 358.773 154.255C357.813 154.015 356.913 153.895 356.073 153.895C351.333 153.895 348.963 156.94 348.963 163.03C348.963 165.94 349.533 168.175 350.673 169.735C351.843 171.265 353.568 172.03 355.848 172.03C357.168 172.03 358.323 171.895 359.313 171.625C360.333 171.355 361.263 171.025 362.103 170.635V174.145C361.293 174.565 360.393 174.88 359.403 175.09C358.443 175.33 357.273 175.45 355.893 175.45ZM386.514 154.21H378.639V175H374.724V154.21H366.939V150.88H386.514V154.21ZM402.166 150.43C404.236 150.43 406.006 150.88 407.476 151.78C408.976 152.68 410.116 153.955 410.896 155.605C411.706 157.225 412.111 159.13 412.111 161.32V163.705H395.596C395.656 166.435 396.346 168.52 397.666 169.96C399.016 171.37 400.891 172.075 403.291 172.075C404.821 172.075 406.171 171.94 407.341 171.67C408.541 171.37 409.771 170.95 411.031 170.41V173.875C409.801 174.415 408.586 174.805 407.386 175.045C406.186 175.315 404.761 175.45 403.111 175.45C400.831 175.45 398.806 174.985 397.036 174.055C395.296 173.125 393.931 171.745 392.941 169.915C391.981 168.055 391.501 165.79 391.501 163.12C391.501 160.48 391.936 158.215 392.806 156.325C393.706 154.435 394.951 152.98 396.541 151.96C398.161 150.94 400.036 150.43 402.166 150.43ZM402.121 153.67C400.231 153.67 398.731 154.285 397.621 155.515C396.541 156.715 395.896 158.395 395.686 160.555H407.971C407.941 158.515 407.461 156.865 406.531 155.605C405.601 154.315 404.131 153.67 402.121 153.67ZM431.751 150.43C434.721 150.43 437.106 151.465 438.906 153.535C440.736 155.605 441.651 158.725 441.651 162.895C441.651 167.005 440.736 170.125 438.906 172.255C437.106 174.385 434.706 175.45 431.706 175.45C429.846 175.45 428.301 175.105 427.071 174.415C425.871 173.695 424.926 172.87 424.236 171.94H423.966C424.026 172.45 424.086 173.095 424.146 173.875C424.206 174.655 424.236 175.33 424.236 175.9V185.8H420.276V150.88H423.516L424.056 154.165H424.236C424.956 153.115 425.901 152.23 427.071 151.51C428.241 150.79 429.801 150.43 431.751 150.43ZM431.031 153.76C428.571 153.76 426.831 154.45 425.811 155.83C424.821 157.21 424.296 159.31 424.236 162.13V162.895C424.236 165.865 424.716 168.16 425.676 169.78C426.666 171.37 428.481 172.165 431.121 172.165C432.591 172.165 433.791 171.76 434.721 170.95C435.681 170.14 436.386 169.045 436.836 167.665C437.316 166.255 437.556 164.65 437.556 162.85C437.556 160.09 437.016 157.885 435.936 156.235C434.886 154.585 433.251 153.76 431.031 153.76ZM459.662 175.45C457.532 175.45 455.627 175.015 453.947 174.145C452.297 173.275 450.992 171.925 450.032 170.095C449.102 168.265 448.637 165.925 448.637 163.075C448.637 160.105 449.132 157.69 450.122 155.83C451.112 153.97 452.447 152.605 454.127 151.735C455.837 150.865 457.772 150.43 459.932 150.43C461.162 150.43 462.347 150.565 463.487 150.835C464.627 151.075 465.557 151.375 466.277 151.735L465.062 155.02C464.342 154.75 463.502 154.495 462.542 154.255C461.582 154.015 460.682 153.895 459.842 153.895C455.102 153.895 452.732 156.94 452.732 163.03C452.732 165.94 453.302 168.175 454.442 169.735C455.612 171.265 457.337 172.03 459.617 172.03C460.937 172.03 462.092 171.895 463.082 171.625C464.102 171.355 465.032 171.025 465.872 170.635V174.145C465.062 174.565 464.162 174.88 463.172 175.09C462.212 175.33 461.042 175.45 459.662 175.45ZM487.898 150.88H492.218L481.913 162.49L493.073 175H488.483L477.593 162.76V175H473.633V150.88H477.593V162.58L487.898 150.88ZM508.611 150.475C511.551 150.475 513.726 151.12 515.136 152.41C516.546 153.7 517.251 155.755 517.251 158.575V175H514.371L513.606 171.58H513.426C512.376 172.9 511.266 173.875 510.096 174.505C508.956 175.135 507.366 175.45 505.326 175.45C503.136 175.45 501.321 174.88 499.881 173.74C498.441 172.57 497.721 170.755 497.721 168.295C497.721 165.895 498.666 164.05 500.556 162.76C502.446 161.44 505.356 160.72 509.286 160.6L513.381 160.465V159.025C513.381 157.015 512.946 155.62 512.076 154.84C511.206 154.06 509.976 153.67 508.386 153.67C507.126 153.67 505.926 153.865 504.786 154.255C503.646 154.615 502.581 155.035 501.591 155.515L500.376 152.545C501.426 151.975 502.671 151.495 504.111 151.105C505.551 150.685 507.051 150.475 508.611 150.475ZM513.336 163.21L509.781 163.345C506.781 163.465 504.696 163.945 503.526 164.785C502.386 165.625 501.816 166.81 501.816 168.34C501.816 169.69 502.221 170.68 503.031 171.31C503.871 171.94 504.936 172.255 506.226 172.255C508.266 172.255 509.961 171.7 511.311 170.59C512.661 169.45 513.336 167.71 513.336 165.37V163.21ZM528.211 175H523.621L530.506 164.875C529.576 164.635 528.676 164.26 527.806 163.75C526.936 163.21 526.231 162.475 525.691 161.545C525.151 160.585 524.881 159.4 524.881 157.99C524.881 155.68 525.661 153.925 527.221 152.725C528.781 151.495 530.851 150.88 533.431 150.88H544.231V175H540.271V165.415H534.421L528.211 175ZM528.706 158.035C528.706 159.415 529.216 160.45 530.236 161.14C531.286 161.8 532.741 162.13 534.601 162.13H540.271V154.165H533.836C532.006 154.165 530.686 154.525 529.876 155.245C529.096 155.965 528.706 156.895 528.706 158.035Z" fill="#F1E312"/>
<path d="M293.005 117.162C298.94 119.038 305.298 115.715 307.182 109.754C309.066 103.793 305.772 97.42 299.837 95.5444C293.903 93.6688 287.545 96.9912 285.661 102.952C283.777 108.913 287.071 115.286 293.005 117.162ZM298.699 99.1473C302.655 100.398 304.851 104.646 303.595 108.62C302.339 112.595 298.1 114.81 294.144 113.559C290.188 112.309 287.992 108.06 289.248 104.086C290.504 100.112 294.742 97.8969 298.699 99.1473ZM317.612 11.8435C309.423 12.7267 302.525 18.3853 300.037 26.2578C298.152 32.2242 299.014 38.558 302.387 43.7871L287.925 89.5464C283.427 91.8458 280.011 95.8625 278.487 100.685C275.348 110.618 280.839 121.243 290.728 124.368C300.617 127.493 311.216 121.955 314.356 112.021C315.88 107.199 315.393 101.949 313.033 97.4818L327.495 51.7226C333.261 49.3819 337.607 44.6942 339.493 38.7278C341.981 30.8553 339.588 22.2606 333.394 16.8315L331.232 14.9354L325.43 33.2925L318.769 35.6453L314.669 29.8916L320.471 11.5345L317.612 11.8435ZM317.345 40.149L328.448 36.2276L332.99 21.8536C336.483 26.2267 337.635 32.123 335.906 37.5941C334.286 42.7211 330.439 46.6967 325.355 48.502L324.469 48.8145L308.946 97.9317L309.373 98.6573C311.548 102.356 312.056 106.815 310.769 110.888C308.257 118.834 299.777 123.265 291.866 120.765C283.956 118.265 279.562 109.765 282.074 101.819C283.361 97.7455 286.339 94.3891 290.245 92.6116L291.012 92.2635L306.535 43.1463L305.99 42.3797C302.865 37.9819 302.004 32.5184 303.624 27.3914C305.353 21.9203 309.685 17.7573 315.056 16.1854L310.513 30.5594L317.345 40.149ZM300.321 87.7716L303.908 88.9053C305.886 89.5305 308.006 88.423 308.634 86.436L317.744 57.6124C318.372 55.6254 317.274 53.501 315.296 52.8758L311.709 51.7422C309.731 51.117 307.611 52.2244 306.983 54.2115L297.873 83.0351C297.245 85.0221 298.343 87.1464 300.321 87.7716ZM310.57 55.3451L314.157 56.4787L305.049 85.3029L301.46 84.1687L310.57 55.3451Z" fill="url(#paint0_linear)"/>
<defs>
<linearGradient id="paint0_linear" x1="319.423" y1="133.437" x2="354.723" y2="21.7456" gradientUnits="userSpaceOnUse">
<stop stop-color="#F3903F"/>
<stop offset="1" stop-color="#FFF33B"/>
</linearGradient>
</defs>
</svg>
