<svg width="705" height="187" viewBox="0 0 705 187" fill="none" xmlns="http://www.w3.org/2000/svg">
<path d="M90.1172 76.3398C90.1172 80.3242 89.5898 84.1719 88.5352 87.8828C87.5195 91.5547 86.0742 95.0117 84.1992 98.2539C82.3242 101.457 80.0586 104.387 77.4023 107.043C74.7461 109.699 71.8164 111.984 68.6133 113.898C65.4102 115.773 61.9531 117.219 58.2422 118.234C54.5312 119.289 50.6836 119.816 46.6992 119.816C42.7148 119.816 38.8672 119.289 35.1562 118.234C31.4844 117.219 28.0273 115.773 24.7852 113.898C21.582 111.984 18.6523 109.699 15.9961 107.043C13.3398 104.387 11.0547 101.457 9.14062 98.2539C7.26562 95.0117 5.80078 91.5547 4.74609 87.8828C3.73047 84.1719 3.22266 80.3242 3.22266 76.3398C3.22266 72.3555 3.73047 68.5078 4.74609 64.7969C5.80078 61.0859 7.26562 57.6289 9.14062 54.4258C11.0547 51.2227 13.3398 48.293 15.9961 45.6367C18.6523 42.9805 21.582 40.7148 24.7852 38.8398C28.0273 36.9648 31.4844 35.5195 35.1562 34.5039C38.8672 33.4492 42.7148 32.9219 46.6992 32.9219C50.6836 32.9219 54.5312 33.4492 58.2422 34.5039C61.9531 35.5195 65.4102 36.9648 68.6133 38.8398C71.8164 40.7148 74.7461 42.9805 77.4023 45.6367C80.0586 48.293 82.3242 51.2227 84.1992 54.4258C86.0742 57.6289 87.5195 61.0859 88.5352 64.7969C89.5898 68.5078 90.1172 72.3555 90.1172 76.3398ZM73.418 76.3398C73.418 72.668 72.7148 69.2109 71.3086 65.9688C69.9023 62.6875 67.9883 59.8555 65.5664 57.4727C63.1836 55.0508 60.3516 53.1367 57.0703 51.7305C53.8281 50.3242 50.3711 49.6211 46.6992 49.6211C42.9883 49.6211 39.5117 50.3242 36.2695 51.7305C33.0273 53.1367 30.1953 55.0508 27.7734 57.4727C25.3516 59.8555 23.4375 62.6875 22.0312 65.9688C20.625 69.2109 19.9219 72.668 19.9219 76.3398C19.9219 80.0117 20.625 83.4688 22.0312 86.7109C23.4375 89.9141 25.3516 92.7266 27.7734 95.1484C30.1953 97.5703 33.0273 99.4844 36.2695 100.891C39.5117 102.297 42.9883 103 46.6992 103C50.3711 103 53.8281 102.297 57.0703 100.891C60.3516 99.4844 63.1836 97.5703 65.5664 95.1484C67.9883 92.7266 69.9023 89.9141 71.3086 86.7109C72.7148 83.4688 73.418 80.0117 73.418 76.3398ZM184.57 118H167.812V58C167.812 56.8281 167.578 55.7344 167.109 54.7188C166.68 53.7031 166.074 52.8242 165.293 52.082C164.551 51.3008 163.672 50.6953 162.656 50.2656C161.641 49.8359 160.547 49.6211 159.375 49.6211C158.203 49.6211 157.109 49.8359 156.094 50.2656C155.078 50.6953 154.18 51.3008 153.398 52.082C152.656 52.8242 152.07 53.7031 151.641 54.7188C151.211 55.7344 150.996 56.8281 150.996 58V118H134.18V58C134.18 56.8281 133.965 55.7344 133.535 54.7188C133.105 53.7031 132.5 52.8242 131.719 52.082C130.977 51.3008 130.098 50.6953 129.082 50.2656C128.066 49.8359 126.973 49.6211 125.801 49.6211C124.629 49.6211 123.535 49.8359 122.52 50.2656C121.504 50.6953 120.605 51.3008 119.824 52.082C119.082 52.8242 118.496 53.7031 118.066 54.7188C117.637 55.7344 117.422 56.8281 117.422 58V118H100.605V58C100.605 54.5234 101.25 51.2617 102.539 48.2148C103.867 45.1289 105.664 42.4531 107.93 40.1875C110.234 37.8828 112.91 36.0859 115.957 34.7969C119.043 33.4687 122.324 32.8047 125.801 32.8047C128.926 32.8047 131.934 33.3711 134.824 34.5039C137.715 35.5977 140.312 37.1992 142.617 39.3086C144.922 37.1992 147.5 35.5977 150.352 34.5039C153.242 33.3711 156.25 32.8047 159.375 32.8047C162.852 32.8047 166.113 33.4687 169.16 34.7969C172.246 36.0859 174.922 37.8828 177.188 40.1875C179.492 42.4531 181.289 45.1289 182.578 48.2148C183.906 51.2617 184.57 54.5234 184.57 58V118ZM266.836 118H248.848L216.445 62.6875V118H199.629V33.9766H217.617L250.02 89.3477V33.9766H266.836V118ZM366.562 118H349.746V33.9766H366.562V75.9883L397.852 33.9766H416.953L390.41 69.4258L416.953 118H397.852L379.395 84.0156L366.562 101.184V118ZM504.258 76.3398C504.258 80.3242 503.73 84.1719 502.676 87.8828C501.66 91.5547 500.215 95.0117 498.34 98.2539C496.465 101.457 494.199 104.387 491.543 107.043C488.887 109.699 485.957 111.984 482.754 113.898C479.551 115.773 476.094 117.219 472.383 118.234C468.672 119.289 464.824 119.816 460.84 119.816C456.855 119.816 453.008 119.289 449.297 118.234C445.625 117.219 442.168 115.773 438.926 113.898C435.723 111.984 432.793 109.699 430.137 107.043C427.48 104.387 425.195 101.457 423.281 98.2539C421.406 95.0117 419.941 91.5547 418.887 87.8828C417.871 84.1719 417.363 80.3242 417.363 76.3398C417.363 72.3555 417.871 68.5078 418.887 64.7969C419.941 61.0859 421.406 57.6289 423.281 54.4258C425.195 51.2227 427.48 48.293 430.137 45.6367C432.793 42.9805 435.723 40.7148 438.926 38.8398C442.168 36.9648 445.625 35.5195 449.297 34.5039C453.008 33.4492 456.855 32.9219 460.84 32.9219C464.824 32.9219 468.672 33.4492 472.383 34.5039C476.094 35.5195 479.551 36.9648 482.754 38.8398C485.957 40.7148 488.887 42.9805 491.543 45.6367C494.199 48.293 496.465 51.2227 498.34 54.4258C500.215 57.6289 501.66 61.0859 502.676 64.7969C503.73 68.5078 504.258 72.3555 504.258 76.3398ZM487.559 76.3398C487.559 72.668 486.855 69.2109 485.449 65.9688C484.043 62.6875 482.129 59.8555 479.707 57.4727C477.324 55.0508 474.492 53.1367 471.211 51.7305C467.969 50.3242 464.512 49.6211 460.84 49.6211C457.129 49.6211 453.652 50.3242 450.41 51.7305C447.168 53.1367 444.336 55.0508 441.914 57.4727C439.492 59.8555 437.578 62.6875 436.172 65.9688C434.766 69.2109 434.062 72.668 434.062 76.3398C434.062 80.0117 434.766 83.4688 436.172 86.7109C437.578 89.9141 439.492 92.7266 441.914 95.1484C444.336 97.5703 447.168 99.4844 450.41 100.891C453.652 102.297 457.129 103 460.84 103C464.512 103 467.969 102.297 471.211 100.891C474.492 99.4844 477.324 97.5703 479.707 95.1484C482.129 92.7266 484.043 89.9141 485.449 86.7109C486.855 83.4688 487.559 80.0117 487.559 76.3398ZM598.711 118H581.953V58C581.953 56.8281 581.719 55.7344 581.25 54.7188C580.82 53.7031 580.215 52.8242 579.434 52.082C578.691 51.3008 577.812 50.6953 576.797 50.2656C575.781 49.8359 574.688 49.6211 573.516 49.6211C572.344 49.6211 571.25 49.8359 570.234 50.2656C569.219 50.6953 568.32 51.3008 567.539 52.082C566.797 52.8242 566.211 53.7031 565.781 54.7188C565.352 55.7344 565.137 56.8281 565.137 58V118H548.32V58C548.32 56.8281 548.105 55.7344 547.676 54.7188C547.246 53.7031 546.641 52.8242 545.859 52.082C545.117 51.3008 544.238 50.6953 543.223 50.2656C542.207 49.8359 541.113 49.6211 539.941 49.6211C538.77 49.6211 537.676 49.8359 536.66 50.2656C535.645 50.6953 534.746 51.3008 533.965 52.082C533.223 52.8242 532.637 53.7031 532.207 54.7188C531.777 55.7344 531.562 56.8281 531.562 58V118H514.746V58C514.746 54.5234 515.391 51.2617 516.68 48.2148C518.008 45.1289 519.805 42.4531 522.07 40.1875C524.375 37.8828 527.051 36.0859 530.098 34.7969C533.184 33.4687 536.465 32.8047 539.941 32.8047C543.066 32.8047 546.074 33.3711 548.965 34.5039C551.855 35.5977 554.453 37.1992 556.758 39.3086C559.062 37.1992 561.641 35.5977 564.492 34.5039C567.383 33.3711 570.391 32.8047 573.516 32.8047C576.992 32.8047 580.254 33.4687 583.301 34.7969C586.387 36.0859 589.062 37.8828 591.328 40.1875C593.633 42.4531 595.43 45.1289 596.719 48.2148C598.047 51.2617 598.711 54.5234 598.711 58V118ZM697.148 118H680.391V58C680.391 56.8281 680.156 55.7344 679.688 54.7188C679.258 53.7031 678.652 52.8242 677.871 52.082C677.129 51.3008 676.25 50.6953 675.234 50.2656C674.219 49.8359 673.125 49.6211 671.953 49.6211C670.781 49.6211 669.688 49.8359 668.672 50.2656C667.656 50.6953 666.758 51.3008 665.977 52.082C665.234 52.8242 664.648 53.7031 664.219 54.7188C663.789 55.7344 663.574 56.8281 663.574 58V118H646.758V58C646.758 56.8281 646.543 55.7344 646.113 54.7188C645.684 53.7031 645.078 52.8242 644.297 52.082C643.555 51.3008 642.676 50.6953 641.66 50.2656C640.645 49.8359 639.551 49.6211 638.379 49.6211C637.207 49.6211 636.113 49.8359 635.098 50.2656C634.082 50.6953 633.184 51.3008 632.402 52.082C631.66 52.8242 631.074 53.7031 630.645 54.7188C630.215 55.7344 630 56.8281 630 58V118H613.184V58C613.184 54.5234 613.828 51.2617 615.117 48.2148C616.445 45.1289 618.242 42.4531 620.508 40.1875C622.812 37.8828 625.488 36.0859 628.535 34.7969C631.621 33.4687 634.902 32.8047 638.379 32.8047C641.504 32.8047 644.512 33.3711 647.402 34.5039C650.293 35.5977 652.891 37.1992 655.195 39.3086C657.5 37.1992 660.078 35.5977 662.93 34.5039C665.82 33.3711 668.828 32.8047 671.953 32.8047C675.43 32.8047 678.691 33.4687 681.738 34.7969C684.824 36.0859 687.5 37.8828 689.766 40.1875C692.07 42.4531 693.867 45.1289 695.156 48.2148C696.484 51.2617 697.148 54.5234 697.148 58V118Z" fill="black"/>
<path d="M106.7 150.88V175H103.145V159.61C103.145 158.98 103.16 158.32 103.19 157.63C103.25 156.94 103.31 156.265 103.37 155.605H103.235L95.36 175H92.03L84.38 155.605H84.245C84.335 156.955 84.38 158.335 84.38 159.745V175H80.825V150.88H86.09L93.695 170.275L101.435 150.88H106.7ZM125.559 150.475C128.499 150.475 130.674 151.12 132.084 152.41C133.494 153.7 134.199 155.755 134.199 158.575V175H131.319L130.554 171.58H130.374C129.324 172.9 128.214 173.875 127.044 174.505C125.904 175.135 124.314 175.45 122.274 175.45C120.084 175.45 118.269 174.88 116.829 173.74C115.389 172.57 114.669 170.755 114.669 168.295C114.669 165.895 115.614 164.05 117.504 162.76C119.394 161.44 122.304 160.72 126.234 160.6L130.329 160.465V159.025C130.329 157.015 129.894 155.62 129.024 154.84C128.154 154.06 126.924 153.67 125.334 153.67C124.074 153.67 122.874 153.865 121.734 154.255C120.594 154.615 119.529 155.035 118.539 155.515L117.324 152.545C118.374 151.975 119.619 151.495 121.059 151.105C122.499 150.685 123.999 150.475 125.559 150.475ZM130.284 163.21L126.729 163.345C123.729 163.465 121.644 163.945 120.474 164.785C119.334 165.625 118.764 166.81 118.764 168.34C118.764 169.69 119.169 170.68 119.979 171.31C120.819 171.94 121.884 172.255 123.174 172.255C125.214 172.255 126.909 171.7 128.259 170.59C129.609 169.45 130.284 167.71 130.284 165.37V163.21ZM153.349 175.45C151.219 175.45 149.314 175.015 147.634 174.145C145.984 173.275 144.679 171.925 143.719 170.095C142.789 168.265 142.324 165.925 142.324 163.075C142.324 160.105 142.819 157.69 143.809 155.83C144.799 153.97 146.134 152.605 147.814 151.735C149.524 150.865 151.459 150.43 153.619 150.43C154.849 150.43 156.034 150.565 157.174 150.835C158.314 151.075 159.244 151.375 159.964 151.735L158.749 155.02C158.029 154.75 157.189 154.495 156.229 154.255C155.269 154.015 154.369 153.895 153.529 153.895C148.789 153.895 146.419 156.94 146.419 163.03C146.419 165.94 146.989 168.175 148.129 169.735C149.299 171.265 151.024 172.03 153.304 172.03C154.624 172.03 155.779 171.895 156.769 171.625C157.789 171.355 158.719 171.025 159.559 170.635V174.145C158.749 174.565 157.849 174.88 156.859 175.09C155.899 175.33 154.729 175.45 153.349 175.45ZM183.97 154.21H176.095V175H172.18V154.21H164.395V150.88H183.97V154.21ZM199.622 150.43C201.692 150.43 203.462 150.88 204.932 151.78C206.432 152.68 207.572 153.955 208.352 155.605C209.162 157.225 209.567 159.13 209.567 161.32V163.705H193.052C193.112 166.435 193.802 168.52 195.122 169.96C196.472 171.37 198.347 172.075 200.747 172.075C202.277 172.075 203.627 171.94 204.797 171.67C205.997 171.37 207.227 170.95 208.487 170.41V173.875C207.257 174.415 206.042 174.805 204.842 175.045C203.642 175.315 202.217 175.45 200.567 175.45C198.287 175.45 196.262 174.985 194.492 174.055C192.752 173.125 191.387 171.745 190.397 169.915C189.437 168.055 188.957 165.79 188.957 163.12C188.957 160.48 189.392 158.215 190.262 156.325C191.162 154.435 192.407 152.98 193.997 151.96C195.617 150.94 197.492 150.43 199.622 150.43ZM199.577 153.67C197.687 153.67 196.187 154.285 195.077 155.515C193.997 156.715 193.352 158.395 193.142 160.555H205.427C205.397 158.515 204.917 156.865 203.987 155.605C203.057 154.315 201.587 153.67 199.577 153.67ZM229.207 150.43C232.177 150.43 234.562 151.465 236.362 153.535C238.192 155.605 239.107 158.725 239.107 162.895C239.107 167.005 238.192 170.125 236.362 172.255C234.562 174.385 232.162 175.45 229.162 175.45C227.302 175.45 225.757 175.105 224.527 174.415C223.327 173.695 222.382 172.87 221.692 171.94H221.422C221.482 172.45 221.542 173.095 221.602 173.875C221.662 174.655 221.692 175.33 221.692 175.9V185.8H217.732V150.88H220.972L221.512 154.165H221.692C222.412 153.115 223.357 152.23 224.527 151.51C225.697 150.79 227.257 150.43 229.207 150.43ZM228.487 153.76C226.027 153.76 224.287 154.45 223.267 155.83C222.277 157.21 221.752 159.31 221.692 162.13V162.895C221.692 165.865 222.172 168.16 223.132 169.78C224.122 171.37 225.937 172.165 228.577 172.165C230.047 172.165 231.247 171.76 232.177 170.95C233.137 170.14 233.842 169.045 234.292 167.665C234.772 166.255 235.012 164.65 235.012 162.85C235.012 160.09 234.472 157.885 233.392 156.235C232.342 154.585 230.707 153.76 228.487 153.76ZM257.118 175.45C254.988 175.45 253.083 175.015 251.403 174.145C249.753 173.275 248.448 171.925 247.488 170.095C246.558 168.265 246.093 165.925 246.093 163.075C246.093 160.105 246.588 157.69 247.578 155.83C248.568 153.97 249.903 152.605 251.583 151.735C253.293 150.865 255.228 150.43 257.388 150.43C258.618 150.43 259.803 150.565 260.943 150.835C262.083 151.075 263.013 151.375 263.733 151.735L262.518 155.02C261.798 154.75 260.958 154.495 259.998 154.255C259.038 154.015 258.138 153.895 257.298 153.895C252.558 153.895 250.188 156.94 250.188 163.03C250.188 165.94 250.758 168.175 251.898 169.735C253.068 171.265 254.793 172.03 257.073 172.03C258.393 172.03 259.548 171.895 260.538 171.625C261.558 171.355 262.488 171.025 263.328 170.635V174.145C262.518 174.565 261.618 174.88 260.628 175.09C259.668 175.33 258.498 175.45 257.118 175.45ZM285.354 150.88H289.674L279.369 162.49L290.529 175H285.939L275.049 162.76V175H271.089V150.88H275.049V162.58L285.354 150.88ZM306.067 150.475C309.007 150.475 311.182 151.12 312.592 152.41C314.002 153.7 314.707 155.755 314.707 158.575V175H311.827L311.062 171.58H310.882C309.832 172.9 308.722 173.875 307.552 174.505C306.412 175.135 304.822 175.45 302.782 175.45C300.592 175.45 298.777 174.88 297.337 173.74C295.897 172.57 295.177 170.755 295.177 168.295C295.177 165.895 296.122 164.05 298.012 162.76C299.902 161.44 302.812 160.72 306.742 160.6L310.837 160.465V159.025C310.837 157.015 310.402 155.62 309.532 154.84C308.662 154.06 307.432 153.67 305.842 153.67C304.582 153.67 303.382 153.865 302.242 154.255C301.102 154.615 300.037 155.035 299.047 155.515L297.832 152.545C298.882 151.975 300.127 151.495 301.567 151.105C303.007 150.685 304.507 150.475 306.067 150.475ZM310.792 163.21L307.237 163.345C304.237 163.465 302.152 163.945 300.982 164.785C299.842 165.625 299.272 166.81 299.272 168.34C299.272 169.69 299.677 170.68 300.487 171.31C301.327 171.94 302.392 172.255 303.682 172.255C305.722 172.255 307.417 171.7 308.767 170.59C310.117 169.45 310.792 167.71 310.792 165.37V163.21ZM325.667 175H321.077L327.962 164.875C327.032 164.635 326.132 164.26 325.262 163.75C324.392 163.21 323.687 162.475 323.147 161.545C322.607 160.585 322.337 159.4 322.337 157.99C322.337 155.68 323.117 153.925 324.677 152.725C326.237 151.495 328.307 150.88 330.887 150.88H341.687V175H337.727V165.415H331.877L325.667 175ZM326.162 158.035C326.162 159.415 326.672 160.45 327.692 161.14C328.742 161.8 330.197 162.13 332.057 162.13H337.727V154.165H331.292C329.462 154.165 328.142 154.525 327.332 155.245C326.552 155.965 326.162 156.895 326.162 158.035ZM385.376 156.955C385.376 158.455 384.926 159.625 384.026 160.465C383.126 161.305 381.971 161.875 380.561 162.175V162.355C382.061 162.565 383.366 163.105 384.476 163.975C385.586 164.815 386.141 166.135 386.141 167.935C386.141 169.975 385.376 171.67 383.846 173.02C382.346 174.34 379.856 175 376.376 175H365.981V150.88H376.331C378.041 150.88 379.571 151.075 380.921 151.465C382.301 151.825 383.381 152.455 384.161 153.355C384.971 154.225 385.376 155.425 385.376 156.955ZM381.371 157.45C381.371 156.31 380.951 155.485 380.111 154.975C379.301 154.435 377.966 154.165 376.106 154.165H369.941V160.78H375.386C379.376 160.78 381.371 159.67 381.371 157.45ZM382.046 167.935C382.046 166.555 381.521 165.565 380.471 164.965C379.421 164.365 377.876 164.065 375.836 164.065H369.941V171.805H375.926C377.906 171.805 379.421 171.52 380.471 170.95C381.521 170.35 382.046 169.345 382.046 167.935ZM418.246 175.45C416.116 175.45 414.211 175.015 412.531 174.145C410.881 173.275 409.576 171.925 408.616 170.095C407.686 168.265 407.221 165.925 407.221 163.075C407.221 160.105 407.716 157.69 408.706 155.83C409.696 153.97 411.031 152.605 412.711 151.735C414.421 150.865 416.356 150.43 418.516 150.43C419.746 150.43 420.931 150.565 422.071 150.835C423.211 151.075 424.141 151.375 424.861 151.735L423.646 155.02C422.926 154.75 422.086 154.495 421.126 154.255C420.166 154.015 419.266 153.895 418.426 153.895C413.686 153.895 411.316 156.94 411.316 163.03C411.316 165.94 411.886 168.175 413.026 169.735C414.196 171.265 415.921 172.03 418.201 172.03C419.521 172.03 420.676 171.895 421.666 171.625C422.686 171.355 423.616 171.025 424.456 170.635V174.145C423.646 174.565 422.746 174.88 421.756 175.09C420.796 175.33 419.626 175.45 418.246 175.45ZM441.352 150.475C444.292 150.475 446.467 151.12 447.877 152.41C449.287 153.7 449.992 155.755 449.992 158.575V175H447.112L446.347 171.58H446.167C445.117 172.9 444.007 173.875 442.837 174.505C441.697 175.135 440.107 175.45 438.067 175.45C435.877 175.45 434.062 174.88 432.622 173.74C431.182 172.57 430.462 170.755 430.462 168.295C430.462 165.895 431.407 164.05 433.297 162.76C435.187 161.44 438.097 160.72 442.027 160.6L446.122 160.465V159.025C446.122 157.015 445.687 155.62 444.817 154.84C443.947 154.06 442.717 153.67 441.127 153.67C439.867 153.67 438.667 153.865 437.527 154.255C436.387 154.615 435.322 155.035 434.332 155.515L433.117 152.545C434.167 151.975 435.412 151.495 436.852 151.105C438.292 150.685 439.792 150.475 441.352 150.475ZM446.077 163.21L442.522 163.345C439.522 163.465 437.437 163.945 436.267 164.785C435.127 165.625 434.557 166.81 434.557 168.34C434.557 169.69 434.962 170.68 435.772 171.31C436.612 171.94 437.677 172.255 438.967 172.255C441.007 172.255 442.702 171.7 444.052 170.59C445.402 169.45 446.077 167.71 446.077 165.37V163.21ZM470.942 150.43C473.912 150.43 476.297 151.465 478.097 153.535C479.927 155.605 480.842 158.725 480.842 162.895C480.842 167.005 479.927 170.125 478.097 172.255C476.297 174.385 473.897 175.45 470.897 175.45C469.037 175.45 467.492 175.105 466.262 174.415C465.062 173.695 464.117 172.87 463.427 171.94H463.157C463.217 172.45 463.277 173.095 463.337 173.875C463.397 174.655 463.427 175.33 463.427 175.9V185.8H459.467V150.88H462.707L463.247 154.165H463.427C464.147 153.115 465.092 152.23 466.262 151.51C467.432 150.79 468.992 150.43 470.942 150.43ZM470.222 153.76C467.762 153.76 466.022 154.45 465.002 155.83C464.012 157.21 463.487 159.31 463.427 162.13V162.895C463.427 165.865 463.907 168.16 464.867 169.78C465.857 171.37 467.672 172.165 470.312 172.165C471.782 172.165 472.982 171.76 473.912 170.95C474.872 170.14 475.577 169.045 476.027 167.665C476.507 166.255 476.747 164.65 476.747 162.85C476.747 160.09 476.207 157.885 475.127 156.235C474.077 154.585 472.442 153.76 470.222 153.76ZM498.312 150.475C501.252 150.475 503.427 151.12 504.837 152.41C506.247 153.7 506.952 155.755 506.952 158.575V175H504.072L503.307 171.58H503.127C502.077 172.9 500.967 173.875 499.797 174.505C498.657 175.135 497.067 175.45 495.027 175.45C492.837 175.45 491.022 174.88 489.582 173.74C488.142 172.57 487.422 170.755 487.422 168.295C487.422 165.895 488.367 164.05 490.257 162.76C492.147 161.44 495.057 160.72 498.987 160.6L503.082 160.465V159.025C503.082 157.015 502.647 155.62 501.777 154.84C500.907 154.06 499.677 153.67 498.087 153.67C496.827 153.67 495.627 153.865 494.487 154.255C493.347 154.615 492.282 155.035 491.292 155.515L490.077 152.545C491.127 151.975 492.372 151.495 493.812 151.105C495.252 150.685 496.752 150.475 498.312 150.475ZM503.037 163.21L499.482 163.345C496.482 163.465 494.397 163.945 493.227 164.785C492.087 165.625 491.517 166.81 491.517 168.34C491.517 169.69 491.922 170.68 492.732 171.31C493.572 171.94 494.637 172.255 495.927 172.255C497.967 172.255 499.662 171.7 501.012 170.59C502.362 169.45 503.037 167.71 503.037 165.37V163.21ZM520.387 150.88V160.915H533.482V150.88H537.442V175H533.482V164.245H520.387V175H516.427V150.88H520.387ZM556.779 175.45C554.649 175.45 552.744 175.015 551.064 174.145C549.414 173.275 548.109 171.925 547.149 170.095C546.219 168.265 545.754 165.925 545.754 163.075C545.754 160.105 546.249 157.69 547.239 155.83C548.229 153.97 549.564 152.605 551.244 151.735C552.954 150.865 554.889 150.43 557.049 150.43C558.279 150.43 559.464 150.565 560.604 150.835C561.744 151.075 562.674 151.375 563.394 151.735L562.179 155.02C561.459 154.75 560.619 154.495 559.659 154.255C558.699 154.015 557.799 153.895 556.959 153.895C552.219 153.895 549.849 156.94 549.849 163.03C549.849 165.94 550.419 168.175 551.559 169.735C552.729 171.265 554.454 172.03 556.734 172.03C558.054 172.03 559.209 171.895 560.199 171.625C561.219 171.355 562.149 171.025 562.989 170.635V174.145C562.179 174.565 561.279 174.88 560.289 175.09C559.329 175.33 558.159 175.45 556.779 175.45ZM585.015 150.88H589.335L579.03 162.49L590.19 175H585.6L574.71 162.76V175H570.75V150.88H574.71V162.58L585.015 150.88ZM605.03 150.43C607.1 150.43 608.87 150.88 610.34 151.78C611.84 152.68 612.98 153.955 613.76 155.605C614.57 157.225 614.975 159.13 614.975 161.32V163.705H598.46C598.52 166.435 599.21 168.52 600.53 169.96C601.88 171.37 603.755 172.075 606.155 172.075C607.685 172.075 609.035 171.94 610.205 171.67C611.405 171.37 612.635 170.95 613.895 170.41V173.875C612.665 174.415 611.45 174.805 610.25 175.045C609.05 175.315 607.625 175.45 605.975 175.45C603.695 175.45 601.67 174.985 599.9 174.055C598.16 173.125 596.795 171.745 595.805 169.915C594.845 168.055 594.365 165.79 594.365 163.12C594.365 160.48 594.8 158.215 595.67 156.325C596.57 154.435 597.815 152.98 599.405 151.96C601.025 150.94 602.9 150.43 605.03 150.43ZM604.985 153.67C603.095 153.67 601.595 154.285 600.485 155.515C599.405 156.715 598.76 158.395 598.55 160.555H610.835C610.805 158.515 610.325 156.865 609.395 155.605C608.465 154.315 606.995 153.67 604.985 153.67Z" fill="#412FDD"/>
<path d="M295.005 117.162C300.94 119.038 307.298 115.715 309.182 109.754C311.066 103.793 307.772 97.42 301.837 95.5444C295.903 93.6688 289.545 96.9912 287.661 102.952C285.777 108.913 289.071 115.286 295.005 117.162ZM300.699 99.1473C304.655 100.398 306.851 104.646 305.595 108.62C304.339 112.595 300.1 114.81 296.144 113.559C292.188 112.309 289.992 108.06 291.248 104.086C292.504 100.112 296.742 97.8969 300.699 99.1473ZM319.612 11.8435C311.423 12.7267 304.525 18.3853 302.037 26.2578C300.152 32.2242 301.014 38.558 304.387 43.7871L289.925 89.5464C285.427 91.8458 282.011 95.8625 280.487 100.685C277.348 110.618 282.839 121.243 292.728 124.368C302.617 127.493 313.216 121.955 316.356 112.021C317.88 107.199 317.393 101.949 315.033 97.4818L329.495 51.7226C335.261 49.3819 339.607 44.6942 341.493 38.7278C343.981 30.8553 341.588 22.2606 335.394 16.8315L333.232 14.9354L327.43 33.2925L320.769 35.6453L316.669 29.8916L322.471 11.5345L319.612 11.8435ZM319.345 40.149L330.448 36.2276L334.99 21.8536C338.483 26.2267 339.635 32.123 337.906 37.5941C336.286 42.7211 332.439 46.6967 327.355 48.502L326.469 48.8145L310.946 97.9317L311.373 98.6573C313.548 102.356 314.056 106.815 312.769 110.888C310.257 118.834 301.777 123.265 293.866 120.765C285.956 118.265 281.562 109.765 284.074 101.819C285.361 97.7455 288.339 94.3891 292.245 92.6116L293.012 92.2635L308.535 43.1463L307.99 42.3797C304.865 37.9819 304.004 32.5184 305.624 27.3914C307.353 21.9203 311.685 17.7573 317.056 16.1854L312.513 30.5594L319.345 40.149ZM302.321 87.7716L305.908 88.9053C307.886 89.5305 310.006 88.423 310.634 86.436L319.744 57.6124C320.372 55.6254 319.274 53.501 317.296 52.8758L313.709 51.7422C311.731 51.117 309.611 52.2244 308.983 54.2115L299.873 83.0351C299.245 85.0221 300.343 87.1464 302.321 87.7716ZM312.57 55.3451L316.157 56.4787L307.049 85.3029L303.46 84.1687L312.57 55.3451Z" fill="url(#paint0_linear)"/>
<defs>
<linearGradient id="paint0_linear" x1="321.423" y1="133.437" x2="356.723" y2="21.7456" gradientUnits="userSpaceOnUse">
<stop stop-color="#9F2FFF"/>
<stop offset="1" stop-color="#0BB1D3"/>
</linearGradient>
</defs>
</svg>
