<svg id="Capa_1" enable-background="new 0 0 510 510" height="512" viewBox="0 0 510 510" width="512" xmlns="http://www.w3.org/2000/svg"><path d="m465 286.667h-48v-13.667c0-27.11-22.056-49.167-49.167-49.167h-77.667c-11.12 0-20.167-9.047-20.167-20.167v-11.333h15.499c31.337 0 56.832-25.495 56.832-56.832 0-15.098 0-90.528 0-105.501 0-16.542-13.458-30-30-30h-114.66c-16.542 0-30 13.458-30 30v105.501c0 31.337 25.495 56.832 56.832 56.832h15.498v11.333c0 27.662 22.504 50.167 50.167 50.167h77.667c10.568 0 19.167 8.598 19.167 19.167v13.667h-342.001c-24.813 0-45 20.187-45 45v133.333c0 24.813 20.187 45 45 45h420c24.813 0 45-20.187 45-45v-133.333c0-24.813-20.187-45-45-45zm-267.33-256.667 114.659-.019s.001.006.001.019v36.041h-114.66zm0 105.501v-39.46h114.66v39.46c0 14.795-12.037 26.832-26.832 26.832h-60.997c-14.794 0-26.831-12.036-26.831-26.832zm282.33 329.499c0 8.271-6.729 15-15 15h-420c-8.271 0-15-6.729-15-15v-133.333c0-8.271 6.729-15 15-15h420c8.271 0 15 6.729 15 15z"/><path d="m399.338 346.833c-28.397 0-51.5 23.103-51.5 51.5s23.103 51.5 51.5 51.5 51.5-23.103 51.5-51.5-23.103-51.5-51.5-51.5zm0 73c-11.855 0-21.5-9.645-21.5-21.5s9.645-21.5 21.5-21.5 21.5 9.645 21.5 21.5-9.645 21.5-21.5 21.5z"/><path d="m80.5 352.888c-8.284 0-15 6.716-15 15v.362c0 8.284 6.716 15 15 15s15-6.716 15-15v-.362c0-8.284-6.716-15-15-15z"/><path d="m80.5 413.417c-8.284 0-15 6.716-15 15v.362c0 8.284 6.716 15 15 15s15-6.716 15-15v-.362c0-8.285-6.716-15-15-15z"/><path d="m300.833 353.25h-156.479c-8.284 0-15 6.716-15 15v60.167c0 8.284 6.716 15 15 15h156.479c8.284 0 15-6.716 15-15v-60.167c0-8.284-6.715-15-15-15zm-15 60.167h-126.479v-30.167h126.479z"/></svg>