<svg id="Layer_5" enable-background="new 0 0 64 64" height="512" viewBox="0 0 64 64" width="512" xmlns="http://www.w3.org/2000/svg" xmlns:xlink="http://www.w3.org/1999/xlink"><linearGradient id="SVGID_1_" gradientUnits="userSpaceOnUse" x1="32" x2="32" y1="63" y2="1"><stop offset="0" stop-color="#9f2fff"/><stop offset="1" stop-color="#0bb1d3"/></linearGradient><path d="m16 59c3.309 0 6-2.691 6-6s-2.691-6-6-6-6 2.691-6 6 2.691 6 6 6zm0-10c2.206 0 4 1.794 4 4s-1.794 4-4 4-4-1.794-4-4 1.794-4 4-4zm37-39c0-2.757-2.243-5-5-5s-5 2.243-5 5 2.243 5 5 5 5-2.243 5-5zm-8 0c0-1.654 1.346-3 3-3s3 1.346 3 3-1.346 3-3 3-3-1.346-3-3zm-33.4-8.078c-4.01 1.752-6.6 5.708-6.6 10.078 0 3.312 1.452 6.371 4 8.472v25.401c-1.912 1.878-3 4.45-3 7.127 0 5.514 4.486 10 10 10s10-4.486 10-10c0-2.677-1.088-5.249-3-7.127v-25.401c2.548-2.101 4-5.16 4-8.472 0-4.37-2.59-8.326-6.6-10.078l-1.4-.612v10.19l-3 2.25-3-2.25v-10.19zm4.4 14.328 5-3.75v-7.979c2.471 1.65 4 4.442 4 7.479 0 2.846-1.313 5.466-3.601 7.188l-.399.299v27.265l.333.298c1.695 1.52 2.667 3.689 2.667 5.95 0 4.411-3.589 8-8 8s-8-3.589-8-8c0-2.261.972-4.43 2.667-5.95l.333-.298v-27.265l-.399-.3c-2.289-1.721-3.601-4.341-3.601-7.187 0-3.037 1.529-5.829 4-7.479v7.979zm-1 26.75h2c1.103 0 2-.897 2-2v-16c0-1.103-.897-2-2-2h-2c-1.103 0-2 .897-2 2v16c0 1.103.897 2 2 2zm0-18h2l.001 16h-2.001zm25.834 27 3.6 6h7.133l3.6-6-3.6-6h-7.133zm9.6-4 2.4 4-2.4 4h-4.867l-2.4-4 2.4-4zm-13.434 4c0 6.065 4.935 11 11 11s11-4.935 11-11c0-4.148-2.334-7.924-6-9.795v-24.73c2.481-1.663 4-4.476 4-7.475 0-4.963-4.038-9-9-9s-9 4.037-9 9c0 2.999 1.519 5.812 4 7.475v24.73c-3.666 1.871-6 5.647-6 9.795zm7.501-35.944c-2.159-1.251-3.501-3.572-3.501-6.056 0-3.859 3.14-7 7-7s7 3.141 7 7c0 2.484-1.342 4.805-3.501 6.056l-.499.289v27.147l.6.262c3.28 1.434 5.4 4.671 5.4 8.246 0 4.963-4.038 9-9 9s-9-4.037-9-9c0-3.575 2.12-6.812 5.4-8.246l.6-.262v-27.147zm2.499 25.944h2v2h-2zm2-2h-2v-11h2zm0-17h-2v-2h2zm0 4h-2v-2h2zm0-8h-2v-2h2z" fill="url(#SVGID_1_)"/></svg>