<svg height="512" viewBox="0 0 64 64" width="512" xmlns="http://www.w3.org/2000/svg" xmlns:xlink="http://www.w3.org/1999/xlink"><linearGradient id="New_Gradient_Swatch_1" gradientUnits="userSpaceOnUse" x1="32" x2="32" y1="-.501" y2="65.165"><stop offset="0" stop-color="#fff33b"/><stop offset=".014" stop-color="#fee72e"/><stop offset=".042" stop-color="#fed51b"/><stop offset=".07" stop-color="#fdca10"/><stop offset=".1" stop-color="#fdc70c"/><stop offset=".4" stop-color="#f3903f"/><stop offset=".8" stop-color="#ed683c"/><stop offset="1" stop-color="#e93e3a"/></linearGradient><g id="Steering_Wheel" fill="url(#New_Gradient_Swatch_1)" data-name="Steering Wheel"><path d="m32 2a30 30 0 1 0 30 30 30.034 30.034 0 0 0 -30-30zm1 4.025v-2a27.815 27.815 0 0 1 12.121 3.249l-1 1.734a25.823 25.823 0 0 0 -11.121-2.983zm-2 0a25.823 25.823 0 0 0 -11.12 2.983l-1-1.734a27.815 27.815 0 0 1 12.12-3.249zm1 1.975a23.959 23.959 0 0 1 18.445 8.664l-14.376 7.319a8.913 8.913 0 0 0 -8.138 0l-14.376-7.319a23.959 23.959 0 0 1 18.445-8.664zm21.741 13.85-12.809 9.095a8.976 8.976 0 0 0 -2.979-5.677l13.723-6.986a24.013 24.013 0 0 1 2.065 3.568zm-21.741 34.15c-.7 0-1.4-.037-2.088-.1l-1.623-15.71a8.906 8.906 0 0 0 7.422 0l-1.623 15.71c-.688.063-1.388.1-2.088.1zm0-17a7 7 0 1 1 7-7 7.008 7.008 0 0 1 -7 7zm-19.676-20.718 13.723 6.986a8.976 8.976 0 0 0 -2.979 5.677l-12.809-9.095a24.013 24.013 0 0 1 2.065-3.568zm-6.299 12.718h-2a27.815 27.815 0 0 1 3.249-12.121l1.734 1a25.823 25.823 0 0 0 -2.983 11.121zm0 2a25.823 25.823 0 0 0 2.983 11.12l-1.734 1a27.815 27.815 0 0 1 -3.249-12.12zm1.975-1a23.9 23.9 0 0 1 1.465-8.26l13.661 9.7a8.992 8.992 0 0 0 3.009 5.372l1.738 16.826a24.035 24.035 0 0 1 -19.873-23.638zm23 25.975v2a27.815 27.815 0 0 1 -12.121-3.249l1-1.734a25.823 25.823 0 0 0 11.121 2.983zm2 0a25.823 25.823 0 0 0 11.12-2.983l1 1.734a27.815 27.815 0 0 1 -12.12 3.249zm3.127-2.337 1.738-16.826a8.992 8.992 0 0 0 3.009-5.372l13.661-9.7a24 24 0 0 1 -18.408 31.9zm21.848-22.638h2a27.815 27.815 0 0 1 -3.249 12.121l-1.734-1a25.823 25.823 0 0 0 2.983-11.121zm0-2a25.823 25.823 0 0 0 -2.983-11.12l1.734-1a27.815 27.815 0 0 1 3.249 12.12zm-2.254-13.85-1.733 1a26.186 26.186 0 0 0 -8.138-8.138l1-1.733a28.2 28.2 0 0 1 8.871 8.871zm-38.571-8.871 1 1.733a26.186 26.186 0 0 0 -8.138 8.138l-1.733-1a28.2 28.2 0 0 1 8.871-8.871zm-8.871 38.571 1.733-1a26.186 26.186 0 0 0 8.138 8.138l-1 1.733a28.2 28.2 0 0 1 -8.871-8.871zm38.571 8.871-1-1.733a26.186 26.186 0 0 0 8.138-8.138l1.733 1a28.2 28.2 0 0 1 -8.871 8.871z"/><path d="m32 29a3 3 0 1 0 3 3 3 3 0 0 0 -3-3zm0 4a1 1 0 1 1 1-1 1 1 0 0 1 -1 1z"/></g></svg>