<svg id="_x33_0" enable-background="new 0 0 64 64" height="512" viewBox="0 0 64 64" width="512" xmlns="http://www.w3.org/2000/svg" xmlns:xlink="http://www.w3.org/1999/xlink"><linearGradient id="SVGID_1_" gradientUnits="userSpaceOnUse" x1="31.599" x2="31.599" y1="63.803" y2="1"><stop offset="0" stop-color="#9f2fff"/><stop offset="1" stop-color="#0bb1d3"/></linearGradient><path d="m55.324 1.387c-.77-.257-1.573-.387-2.386-.387-2.152 0-4.208.923-5.638 2.532l-13.412 15.088c-.573.645-.888 1.475-.888 2.337 0 .726.223 1.416.629 2l-1.629 1.629c-.645.645-1 1.502-1 2.414 0 .181.025.358.052.534l-9.48 9.48c-.014-.006-.027-.014-.041-.02l-4.531-6.797-4.427 6.641-8.029-2.294 2.294 8.029-6.641 4.427 6.641 4.427-2.294 8.029 8.029-2.294 4.427 6.641 4.427-6.641 8.029 2.294-2.294-8.029 6.641-4.427-6.788-4.525c-.008-.018-.014-.036-.022-.053l9.474-9.474c.175.027.352.052.533.052.912 0 1.77-.355 2.414-1l1.629-1.629c.584.406 1.274.629 2 .629.862 0 1.692-.315 2.337-.888l15.088-13.412c1.609-1.43 2.532-3.486 2.532-5.638 0-.813-.13-1.616-.387-2.385-1.141-3.424-3.866-6.149-7.289-7.29zm-.633 1.898c2.829.943 5.081 3.195 6.024 6.024.189.566.285 1.155.285 1.753 0 .962-.254 1.896-.716 2.717-4.125-1.319-8.744-5.938-10.063-10.063.821-.462 1.755-.716 2.717-.716.598 0 1.187.096 1.753.285zm-6.093 1.798c1.696 4.244 6.075 8.623 10.319 10.319l-1.79 1.591c-3.578-.981-9.139-6.542-10.12-10.12zm-31.598 46.917c2.611 0 4.761-2.012 4.981-4.567l3.485-3.485c.352.974.534 1.996.534 3.052 0 4.962-4.038 9-9 9s-9-4.038-9-9 4.038-9 9-9c1.043 0 2.069.198 3.04.546l-3.472 3.472c-2.556.221-4.568 2.371-4.568 4.982 0 2.757 2.243 5 5 5zm1.541-15.886c-.509-.071-1.023-.114-1.541-.114-.526 0-1.039.05-1.546.122l1.546-2.319zm-8.215 2.162c-.771.591-1.459 1.28-2.05 2.05l-.82-2.87zm-4.204 7.178c-.072.507-.122 1.02-.122 1.546s.05 1.039.122 1.546l-2.319-1.546zm2.154 8.22c.591.771 1.28 1.459 2.05 2.05l-2.87.82zm7.178 4.204c.507.072 1.02.122 1.546.122s1.039-.05 1.546-.122l-1.546 2.319zm8.22-2.154c.771-.591 1.459-1.28 2.05-2.05l.82 2.87zm6.523-8.724-2.319 1.546c.072-.507.122-1.02.122-1.546 0-.523-.048-1.036-.12-1.544zm-10.197-.414v.414c0 1.654-1.346 3-3 3s-3-1.346-3-3 1.346-3 3-3h.414l14.586-14.586 2.586 2.586zm18-16c-.526.526-1.474.526-2 0l-2.586-2.586c-.263-.263-.414-.628-.414-1s.151-.737.414-1l1.586-1.586 4.586 4.586zm6.051-1.969c-.581.516-1.531.489-2.081-.061l-6.525-6.525c-.287-.287-.445-.669-.445-1.074 0-.372.136-.73.383-1.008l10.118-11.381c1.636 3.772 6.16 8.296 9.932 9.932zm-26.051 18.383c0 .552-.448 1-1 1s-1-.448-1-1 .448-1 1-1 1 .448 1 1z" fill="url(#SVGID_1_)"/></svg>