<svg height="512" viewBox="0 0 64 64" width="512" xmlns="http://www.w3.org/2000/svg" xmlns:xlink="http://www.w3.org/1999/xlink"><linearGradient id="New_Gradient_Swatch_1" gradientUnits="userSpaceOnUse" x1="32" x2="32" y1="-.501" y2="65.165"><stop offset="0" stop-color="#fff33b"/><stop offset=".014" stop-color="#fee72e"/><stop offset=".042" stop-color="#fed51b"/><stop offset=".07" stop-color="#fdca10"/><stop offset=".1" stop-color="#fdc70c"/><stop offset=".4" stop-color="#f3903f"/><stop offset=".8" stop-color="#ed683c"/><stop offset="1" stop-color="#e93e3a"/></linearGradient><linearGradient id="New_Gradient_Swatch_1-4" gradientTransform="matrix(.707 .707 -.707 .707 27.899 -23.154)" x1="41.899" x2="41.899" xlink:href="#New_Gradient_Swatch_1" y1="-.501" y2="65.165"/><linearGradient id="New_Gradient_Swatch_1-5" x1="46" x2="46" xlink:href="#New_Gradient_Swatch_1" y1="-.501" y2="65.165"/><linearGradient id="New_Gradient_Swatch_1-6" gradientTransform="matrix(.707 .707 -.707 .707 41.896 -17.355)" x1="41.899" x2="41.899" xlink:href="#New_Gradient_Swatch_1" y1="-.501" y2="65.165"/><linearGradient id="New_Gradient_Swatch_1-8" gradientTransform="matrix(.707 .707 -.707 .707 36.101 -3.355)" x1="22.101" x2="22.101" xlink:href="#New_Gradient_Swatch_1" y1="-.501" y2="65.165"/><linearGradient id="New_Gradient_Swatch_1-9" x1="18" x2="18" xlink:href="#New_Gradient_Swatch_1" y1="-.501" y2="65.165"/><linearGradient id="New_Gradient_Swatch_1-10" gradientTransform="matrix(.707 .707 -.707 .707 22.099 -9.154)" x1="22.101" x2="22.101" xlink:href="#New_Gradient_Swatch_1" y1="-.501" y2="65.165"/><g fill="url(#New_Gradient_Swatch_1)"><path d="m32 2a30 30 0 1 0 30 30 30.034 30.034 0 0 0 -30-30zm27.975 31a27.936 27.936 0 0 1 -.693 5.275l-2.875-.77-.517 1.932 2.88.771a27.819 27.819 0 0 1 -2.044 4.913l-2.576-1.487-1 1.732 2.571 1.484a28.157 28.157 0 0 1 -3.241 4.216l-2.095-2.1-1.414 1.414 2.1 2.095a28.157 28.157 0 0 1 -4.216 3.241l-1.484-2.57-1.732 1 1.487 2.575a27.819 27.819 0 0 1 -4.913 2.044l-.771-2.881-1.932.518.77 2.875a27.936 27.936 0 0 1 -5.28.698v-2.975h-2v2.975a27.936 27.936 0 0 1 -5.275-.693l.77-2.875-1.932-.518-.771 2.881a27.819 27.819 0 0 1 -4.913-2.044l1.487-2.575-1.732-1-1.484 2.57a28.157 28.157 0 0 1 -4.216-3.241l2.1-2.095-1.414-1.414-2.1 2.1a28.157 28.157 0 0 1 -3.241-4.221l2.571-1.484-1-1.732-2.576 1.487a27.819 27.819 0 0 1 -2.044-4.913l2.88-.771-.517-1.932-2.875.77a27.936 27.936 0 0 1 -.693-5.275h2.975v-2h-2.975a27.936 27.936 0 0 1 .693-5.275l2.875.77.517-1.932-2.88-.771a27.819 27.819 0 0 1 2.044-4.913l2.576 1.487 1-1.732-2.571-1.484a28.157 28.157 0 0 1 3.241-4.216l2.1 2.1 1.414-1.414-2.1-2.1a28.157 28.157 0 0 1 4.216-3.241l1.484 2.57 1.732-1-1.487-2.575a27.819 27.819 0 0 1 4.913-2.044l.771 2.881 1.937-.518-.77-2.875a27.936 27.936 0 0 1 5.27-.693v2.975h2v-2.975a27.936 27.936 0 0 1 5.275.693l-.77 2.875 1.932.518.771-2.881a27.819 27.819 0 0 1 4.913 2.044l-1.487 2.575 1.732 1 1.484-2.57a28.157 28.157 0 0 1 4.216 3.241l-2.1 2.1 1.414 1.414 2.095-2.1a28.157 28.157 0 0 1 3.241 4.216l-2.566 1.484 1 1.732 2.576-1.487a27.819 27.819 0 0 1 2.044 4.913l-2.88.771.517 1.932 2.875-.77a27.936 27.936 0 0 1 .693 5.275h-2.975v2z"/><path d="m32 25a7 7 0 1 0 7 7 7.008 7.008 0 0 0 -7-7zm0 12a5 5 0 1 1 5-5 5.006 5.006 0 0 1 -5 5z"/><path d="m31 15h2v6h-2z"/></g><path d="m38.9 21.1h6v2h-6z" fill="url(#New_Gradient_Swatch_1-4)" transform="matrix(.707 -.707 .707 .707 -3.355 36.1)"/><path d="m43 31h6v2h-6z" fill="url(#New_Gradient_Swatch_1-5)"/><path d="m40.9 38.9h2v6h-2z" fill="url(#New_Gradient_Swatch_1-6)" transform="matrix(.707 -.707 .707 .707 -17.355 41.896)"/><path d="m31 43h2v6h-2z" fill="url(#New_Gradient_Swatch_1)"/><path d="m19.101 40.9h6v2h-6z" fill="url(#New_Gradient_Swatch_1-8)" transform="matrix(.707 -.707 .707 .707 -23.154 27.9)"/><path d="m15 31h6v2h-6z" fill="url(#New_Gradient_Swatch_1-9)"/><path d="m21.101 19.1h2v6h-2z" fill="url(#New_Gradient_Swatch_1-10)" transform="matrix(.707 -.707 .707 .707 -9.154 22.099)"/><path d="m32 10a22 22 0 1 0 22 22 22.025 22.025 0 0 0 -22-22zm5 2.658a19.894 19.894 0 0 1 5.142 2.134l-5.142 5.136zm-10 0v7.27l-5.142-5.136a19.894 19.894 0 0 1 5.142-2.134zm-12.208 9.2 5.136 5.142h-7.27a19.894 19.894 0 0 1 2.134-5.142zm-2.134 15.142h7.27l-5.136 5.142a19.894 19.894 0 0 1 -2.134-5.142zm14.342 14.342a19.894 19.894 0 0 1 -5.142-2.134l5.142-5.136zm10 0v-7.27l5.142 5.136a19.894 19.894 0 0 1 -5.142 2.134zm6.843-3.263-7.136-7.126a1 1 0 0 0 -1.707.707v10.09a18.125 18.125 0 0 1 -6 0v-10.09a1 1 0 0 0 -1.707-.707l-7.136 7.126a20.109 20.109 0 0 1 -4.236-4.236l7.127-7.136a1 1 0 0 0 -.708-1.707h-10.09a18.125 18.125 0 0 1 0-6h10.09a1 1 0 0 0 .708-1.707l-7.127-7.136a20.109 20.109 0 0 1 4.236-4.236l7.136 7.126a1 1 0 0 0 1.707-.707v-10.09a18.125 18.125 0 0 1 6 0v10.09a1 1 0 0 0 1.707.707l7.136-7.126a20.109 20.109 0 0 1 4.236 4.236l-7.127 7.136a1 1 0 0 0 .708 1.707h10.09a18.125 18.125 0 0 1 0 6h-10.09a1 1 0 0 0 -.708 1.707l7.127 7.136a20.109 20.109 0 0 1 -4.236 4.236zm5.365-26.221a19.894 19.894 0 0 1 2.134 5.142h-7.27zm2.134 15.142a19.894 19.894 0 0 1 -2.134 5.142l-5.136-5.142z" fill="url(#New_Gradient_Swatch_1)"/></svg>